<?xml version="1.0" encoding="UTF-8"?>
<svg id="Capa_1" data-name="Capa 1" xmlns="http://www.w3.org/2000/svg" viewBox="0 0 991.97 2124.46">
  <defs>
    <style>
      .cls-1, .cls-2 {
        fill: #e20e17;
        stroke-width: 0px;
      }

      .cls-2 {
        fill-rule: evenodd;
      }

      .cls-3 {
        fill: #fff;
        stroke: #fff;
        stroke-miterlimit: 10;
      }
    </style>
  </defs>
  <ellipse class="cls-3" cx="457.96" cy="483.88" rx="369.19" ry="370.72"/>
  <g>
    <path class="cls-2" d="M316.37,573.81v-.18h0v-.28h0v.47h0ZM316.87,569.9v-.23h0l.05-.23h0v-.22h0l.05-.28h0l.03-.22v-.05l.15-.23h0l.08-.22v-.05l.13-.27h0l.1-.27h0l.14-.28h0l.18-.27h0l.13-.32h0l.23-.27h0l.13-.33h0l.18-.27h0l.27-.32h0l.18-.32h0l.22-.27h0l.23-.32h0l.27-.32h0l.28-.33h0l.18-.3h0l.32-.33h0l.27-.27h0l.27-.32h0l.28-.32h0l.32-.32h0l.22-.32h0l.32-.27h0l.32-.33h0l.32-.32h0l.32-.27h0l.33-.27v-.05l.27-.27h0l.32-.28h0l.37-.27h0l.27-.32h0l.32-.23h0l.32-.32h0l.32-.22h0l.32-.23v-.05l.37-.18h0l.23-.27h0l.32-.27h0l.32-.18h0l.32-.23h0l.32-.18h0l.27-.22h0l.32-.18h0l.28-.18h0l.27-.13h0l.27-.18h0l.28-.13h0l.22-.13h0l.28-.13h0l.27-.15h0l.22-.08h0l.23-.1h0l.23-.03h0l.18-.1h0l.27-.03h.08l.23-.05h.14l.13.05h.13l.15.03h0l.13.05h0l.18.08h0l.13.1h0l.18.13h0l.13.14h0l.13.18h0l.23.13h0l.13.23h0l.18.18h0l.18.22h0l.17.18h0l.18.28h0l.18.27h0l.18.23h0l.18.27h0l.23.32h0l.13.32h0l.18.27h0l.22.32h0l.18.37h0l.23.32h0l.18.37h0l.18.32v.05l.22.32h0l.23.37h0l.13.35h0l.18.42h0l.22.37h0l.18.4.18.37h0l.18.37v.03l.18.37h0l.18.42h0l.13.35h0l.18.47h0l.23.37h0l.13.35h0l.18.42h0l.14.4h0l.18.37h0l.13.4h0l.13.37h0l.08.42h0l.18.35h0l.14.37h0l.15.42h0l.08.32h0l.13.37h0l.1.32h0l.08.35h0l.1.33h0l.03.3h0l.1.33h0l.08.32h0l.05.27h0l.08.32h0v.23h0l.05.27h0v.27h0v.18h0l.05.28h0l-.05.03h0v.13h0v.1h0v.08h0v.1h0v.08h0l-.05.13h0v.1h0v.08h0v.1h0l-.03.08h0l-.05.1h0v.08h0l-.05.08h0l-.05.1h0l-.03.08h0v.05h0l-.05.1h0l-.05.08h0v.08h0l-.08.05v.05l-.05.05h0v.08h0l-.08.05h0v.08h0l-.1.1h0l-.03.03h0l-.1.13h0l-.08.1h0l-.05.05h0l-.1.08h0l-.03.05h0l-.05.08h0l-.05.05h0l-.08.05h0l-.1.03h0l-.03.05h0l-.1.05h0l-.05.05h0l-.08.08h-.08l-.1.1h0l-.08.03h-.05l-.08.05h0l-.1.05h-.05l-.08.03h0l-.08.05h0l-.1.05h-.13l-.1.03h-.08l-.05.05h-.32l-.08.05h-.45.08l-20.65-7.45h0ZM359.62,572.17h0l.18,4.28h0v.03h0l-.1.05h0l-.08.05h-.1l-.03.03h0l-.15.1h0l-.13.05h0l-.08.08h-.1l-.08.13h-.05l-.08.05v.05h-.1l-.13.08h0l-.03.05h0l-.15.03h0l-.03.05h0l-.1.05h0l-.08.1h0l-.1.03h0l-.08.05h0l-.13.08h0l-.05.05h0l-.13.05h0l-.1.08h0l-.08.05h0l-.13.05h0l-.1.08h0l-.08.1h-.1l-.03.08h0l-.13.05h-.1l-.08.08h0l-.1.1h-.13l-.08.03h0l-.1.1h0l-.08.05h-.05l-.14.08h0l-.1.05h0l-.08.03h0l-.1.05h-.08l-.08.08h-.1v.05h-.08l-.13.05h0l-.05.05h-.05l-.13.03h-.05l-.13.1h-.13l-.05.05h-.18v.03h-.22l5.36-7.08h0ZM354.25,579.25h-.05.05ZM364.43,594.09l-.35-.05v-.05l1.8-7-5.5,3.91h0l.05.05h0l.03.08h0l.05.05h0l.05.05h0l.05.08h0l.03.05h.05v.05l.05.08h.05l.03.08h0l.05.05h0l.05.1h0l.03.03h0v.05h0l.1.1h0l.05.03h0l.03.1h0l.05.03h0l.05.05h0l.08.05h0v.08h0l.1.05h0v.1h0l.08.03h0l.05.05h0v.08h.05l.08.1v.03h0l.08.1h0l.05.05h0v.03h0l.05.05v.1h0l.05.03h0l.03.1h.05l.05.03h0l.03.1h0l.05.05h0l.05.03h0l.05.05h0v.05h0v.05h0l.08.03h0v.1h0l.05.03h0l.08.05v.05h0v.08h0l.1.05h0v.1h0v.03h0v.05h0v.05h.03v.03h0v.05h0v.05h0v.13h0v.13h0v.14h0l-.03.18h0v.13h0v.15h0v.08h0v.13h0v.13h0v.13h0v.1h0v.08h0l-.1.13h0v.1h0v.08h0v.1h0l-.03.13h0l-.05.08h0l-.05.05h0v.1h0v.13h0v.05h0l-.08.08h0v.13h0l-.05.08h0v.05h0l-.05.1h0l-.05.08h0l-.03.05h0l-.05.08h0v.1h0l-.05.03h0v.1h0l-.08.08h0v.1h0v.08h0l-.05.05h0v.08h0l-.05.15h0l-.08.03h0v.1h0v.08h0l-.08.1h0l-.05.08h0v.08h0l-.05.1h0l-.05.14h0v.1h0l-.03.08h0v.08h0l-.1.15h0v.13h0l-.08.08h0v.13h0v.13h0l-.05.1h0l-.05.18h0l-.03.13h0v.13h0l-.05.13h0l-.05.18h0l-.05.13v.18h0v.15l4.64-2.47-1.19-4.58h0ZM365.88,586.99l-1.45,7.1-.35-.1h0l1.8-7h0ZM359.8,576.45l-5.55,2.81h-.05.27v-.03h.18l.05-.05h.13l.13-.1h.05l.13-.03h.05l.05-.05h0l.13-.05h.08v-.05h.1l.08-.08h.08l.1-.05h0l.08-.03h0l.1-.05h0l.14-.08h.05l.08-.05h0l.1-.1h0l.08-.03h.13l.1-.1h0l.08-.08h.1l.13-.05h0l.03-.08h.1l.08-.1h0l.1-.08h0l.13-.05h0l.08-.05h0l.1-.08h0l.13-.05h0l.05-.05h0l.13-.08h0l.08-.05h0l.1-.03h0l.08-.1h0l.1-.05h0l.03-.05h0l.15-.03h0l.03-.05h0l.13-.08h.1v-.05l.08-.05h.05l.08-.13h.1l.08-.08h0l.13-.05h0l.15-.1h0l.03-.03h.1l.08-.05h0l.1-.05h0v-.03h0ZM354.25,579.25h.22v-.03h.18l.05-.05h.13l.13-.1h.05l.13-.03h.05l.05-.05h0l.13-.05h.08v-.05h.1l.08-.08h.08l.1-.05h0l.08-.03h0l.1-.05h0l.14-.08h.05l.08-.05h0l.1-.1h0l.08-.03h.13l.1-.1h0l.08-.08h.1l.13-.05h0l.03-.08h.1l.08-.1h0l.1-.08h0l.13-.05h0l.08-.05h0l.1-.08h0l.13-.05h0l.05-.05h0l.13-.08h0l.08-.05h0l.1-.03h0l.08-.1h0l.1-.05h0l.03-.05h0l.15-.03h0l.03-.05h0l.13-.08h.1v-.05l.08-.05h.05l.08-.13h.1l.08-.08h0l.13-.05h0l.15-.1h0l.03-.03h.1l.08-.05h0l.1-.05h0v-.03h0l-.18-4.28-9,3.59h0v.08h0v.13h0v.13h0v.1h0v.08h0v.1h0v.08h0v.1h0v.13h0v.05h0v.08h0v.13h0v.1h0v.03h0v.1h0v.08h0l.08.1h0v.05h0v.08h0v.13h0v.14h0l.05.05h0v.05h0v.08h0l.05.1h0l.05.13h0v.03h0l.03.05h0l.05.1h0l.05.03h0v.1h0l.03.05h.05v.03h0l.05.05h0l.05.05h0l.08.03h0v.05h0l.08.05h0l.05.03h0v.05h.18l.05.05h0l.08.05h.05l.08.03h.18l.1.1h.13l.14.05h.23l.08.03h.45-.45l-.08-.03h-.23l-.14-.05h-.13l-.1-.1h-.18l-.08-.03h-.05l-.08-.05h0l-.05-.05h-.18v-.05h0l-.05-.03h0l-.08-.05h0v-.05h0l-.08-.03h0l-.05-.05h0l-.05-.05h0v-.03h-.05l-.03-.05h0v-.1h0l-.05-.03h0l-.05-.1h0l-.03-.05h0v-.03h0l-.05-.13h0l-.05-.1h0v-.08h0v-.05h0l-.05-.05h0v-.14h0v-.13h0v-.08h0v-.05h0l-.08-.1h0v-.08h0v-.1h0v-.03h0v-.1h0v-.13h0v-.08h0v-.05h0v-.13h0v-.1h0v-.08h0v-.1h0v-.08h0v-.1h0v-.13h0v-.13h0v-.08h0l9-3.59.18,4.28-5.55,2.81h0ZM359.8,576.45l-5.55,2.81h-.05.27v-.03h.18l.05-.05h.13l.13-.1h.05l.13-.03h.05l.05-.05h0l.13-.05h.08v-.05h.1l.08-.08h.08l.1-.05h0l.08-.03h0l.1-.05h0l.14-.08h.05l.08-.05h0l.1-.1h0l.08-.03h.13l.1-.1h0l.08-.08h.1l.13-.05h0l.03-.08h.1l.08-.1h0l.1-.08h0l.13-.05h0l.08-.05h0l.1-.08h0l.13-.05h0l.05-.05h0l.13-.08h0l.08-.05h0l.1-.03h0l.08-.1h0l.1-.05h0l.03-.05h0l.15-.03h0l.03-.05h0l.13-.08h.1v-.05l.08-.05h.05l.08-.13h.1l.08-.08h0l.13-.05h0l.15-.1h0l.03-.03h.1l.08-.05h0l.1-.05h0v-.03h0ZM354.25,579.25h.22v-.03h.18l.05-.05h.13l.13-.1h.05l.13-.03h.05l.05-.05h0l.13-.05h.08v-.05h.1l.08-.08h.08l.1-.05h0l.08-.03h0l.1-.05h0l.14-.08h.05l.08-.05h0l.1-.1h0l.08-.03h.13l.1-.1h0l.08-.08h.1l.13-.05h0l.03-.08h.1l.08-.1h0l.1-.08h0l.13-.05h0l.08-.05h0l.1-.08h0l.13-.05h0l.05-.05h0l.13-.08h0l.08-.05h0l.1-.03h0l.08-.1h0l.1-.05h0l.03-.05h0l.15-.03h0l.03-.05h0l.13-.08h.1v-.05l.08-.05h.05l.08-.13h.1l.08-.08h0l.13-.05h0l.15-.1h0l.03-.03h.1l.08-.05h0l.1-.05h0v-.03h0l-.18-4.28-9,3.59h0v.08h0v.13h0v.13h0v.1h0v.08h0v.1h0v.08h0v.1h0v.13h0v.05h0v.08h0v.13h0v.1h0v.03h0v.1h0v.08h0l.08.1h0v.05h0v.08h0v.13h0v.14h0l.05.05h0v.05h0v.08h0l.05.1h0l.05.13h0v.03h0l.03.05h0l.05.1h0l.05.03h0v.1h0l.03.05h.05v.03h0l.05.05h0l.05.05h0l.08.03h0v.05h0l.08.05h0l.05.03h0v.05h.18l.05.05h0l.08.05h.05l.08.03h.18l.1.1h.13l.14.05h.23l.08.03h1.55ZM359.62,572.17l.18,4.28-.18-4.28h0ZM364.71,602.36l-4.7,2.4.05-.13h0l.05-.18h0v-.13h0l.03-.18h0l.05-.13h0v-.13h0l.05-.13h0v-.15h0l.08-.13h0v-.22h0l.05-.15h0l.08-.08h0v-.13h0v-.13h0l.1-.05h0v-.18h0l.05-.05h0l.03-.08h0l.05-.08h0v-.15h0l.05-.03h0l.05-.15h0v-.03h0l.03-.1h0l.05-.08h0v-.1h0l.08-.08h0v-.05h0v-.13h0l.1-.05h0v-.08h0l.05-.05h0l.03-.08h0l.05-.1h0l3.51,1.37h0ZM458.77,109.93c-207.91,0-376.44,168.59-376.44,376.49s168.52,376.5,376.44,376.5,376.5-168.59,376.5-376.5S666.68,109.93,458.77,109.93h0ZM650.05,377.81c-18.19,0-35.19,4.78-49.93,12.99-.27-1.77-.5-3.49-.82-5.18,27.73-9.4,53.87-21.5,78.11-35.86,3.86,11.46,7.37,23.24,10.32,35.23-11.64-4.59-24.42-7.18-37.68-7.18h0ZM708.28,396.05c-3.96-19.24-9.19-37.92-15.58-55.92,23.72-15.64,45.23-33.61,64.16-53.47,36.83,54.82,58.93,120.35,60.65,190.94h-66.45v-.17c0-33.66-16.9-63.39-42.78-81.38h0ZM749.42,495.23h68.08c-1.85,76.52-27.64,147.08-70.17,204.51h0c-18.51-17.96-39.14-34.19-61.74-48.38,12.23-29.87,21.18-61.92,26.46-95.38,19.23-14.73,32.87-36.2,37.37-60.75h0ZM692.09,567.98c-5.04,25.87-12.41,50.75-21.78,74.25-23.32-13.23-48.36-24.37-74.78-33.06,2.77-14.31,5.04-29,6.87-43.91,14.18,7.5,30.42,11.73,47.66,11.73,14.95,0,29.18-3.22,42.04-9h0ZM585.89,554.4c-1.77,16.95-4.22,33.51-7.27,49.64-22.1-6.28-45.07-10.82-68.65-13.55-1.1.99-2.14,1.91-3.24,2.86.37-1,.92-2,1.69-3.01l-.45-.03,1-.87c4.09-10.27,28.46-20.01,30.23-43.83.58-8.13-2.19-14.95-6.5-20.23,14.31,11.28,8.82,28.55-5.06,45.42,18.92-22.87,22.65-46.47-17.54-55.11l-6.23-12.94-.55-.18,6.41,13.18c-1.64-.1-2.46,0-4.86-1.23-2.77-1.35-3.54-3.49-5.86-3.49h-1.92c-2.77,0-3.12,1.69-3.67,3.78-7.23.18-18.83,10.27-25.24,10.27h-1.22l.68-.37v-3.22c5.91-3.86,15.18-7.13,18.27-11.37l-3.54-2.22-2.24-3.91-.77,3.36h1.9v3.69l-13.63,6.6v-2.96c3.91-2.24,6.87-4.64,7.08-7.33h-4.68c-1.32,4.78-8,5.7-12.28,7.33-3.14,1.17-8.72,4.94-11.99,6.68l-3.37-4.36c3.41-.87,10.05-3.82,16.37-7.28-3.19,2-6.32,4.01-8.77,5.28v2.72c6.08-2.82,13.18-6.81,17.64-10.32v-3.09l-.13.05c3.36-2.37,5.81-4.64,6.26-6.33-4.36.34-21.73,13.96-26.19,13.96-.4,0-3.68-1.5-3.68-2.77,0-4.04,2.46-7.92,6.1-11.19v3.19c6.18-4.78,15.08-7.95,21.91-7.95,2.22,0,3.09,1.19,4.18,1.99h5.28c.45-1.67.72-1.03.72-2.91,0-.22-.18-.54-.45-.87h1.5c.58-2.67.9-1.62.9-3.73,0-1.35-4.91-4.68-6.55-4.68h-2.77l-9.64.95c1.45-2,3.56-4.23,5.83-6.41h-2.64c5.55-6.68,15.95-15,21.42-15.08,1.22,4.49,3.64,9.14,4.41,15.08h-3.04c.72,2.45,1.22,5.19,1.22,8.18v1c0,3.96-.08,6.41-.37,8.18-.77.95-1.82,2.14-3.17,3.96,3.04,4.14,8.82,2.82,15.87,2.82.85.53,1.99,1.4,3.36,2.3l9.87,4.19c1.99-.14,1.67-2.64,1.72-4.7h-2.82l-2.67-5.63c-.1-8.18-.45-18.22-3.88-23.27l1.14-21.51.73-31.74c2.14-1.4,3.33-3.73,5.63-3.73h1.87c3.36,0,7.45,2.56,7.45,5.55,0,1.37-3.17,14.97-4.09,20.19-1.17,6.87-3.36,14.13-3.36,20.95v12.14c0,.37,0,.74.05,1.09h-2.37v3.64c0,4.01,1.92,8.55,2.69,14h2.82c1.04,6.1,3.17,7.1,4.26,11.14,4.88-.35,4.59-2.22,5.65-6.55h.58l-1.59,5.73.18-.08,1.69-6.1,10.14.32,2.96-.05,3.81.18v.05l1.09.05c5.09,21.73,17.47,40.74,34.38,54.47h0ZM450,523.83v2.24l-3.06,1.45c.28-1.32,1.42-2.51,3.06-3.69h0ZM464.18,526.94c.37-.33.77-.6,1.22-.87v.87h-1.22ZM486.42,606.08c30.77,2,60.47,7.18,88.7,15.28-10.09,45.68-25.05,87.43-43.91,123.43-20.65-3.44-41.93-5.36-63.56-5.81v-122.31c5.91-2.81,12.31-6.45,18.78-10.59h0ZM450,622.55v116.42c-20.41.45-40.47,2.22-59.97,5.23,22.95-16.5,37.87-43.25,37.87-73.43,0-15.72-4.04-30.5-11.23-43.41l2.09-3.64,22.55.27,8.69-1.44h0ZM289.41,749.43c4.78,5.95,9.69,11.78,14.87,17.41-14.9,5.55-29.27,11.96-43.1,19.11-30.13-19.96-57.19-44.3-80.01-72.21,17.27-17.04,36.73-32.51,57.91-46.05,1.5,3.27,3.01,6.5,4.59,9.64,2.19,30.87,20.06,57.38,45.73,72.11h0ZM248.27,641.64l-.95.58c-7.32-18.27-13.41-37.37-18.09-57.15l9,27.15c24.72-31.15,48.78-56.74,68.24-43.25l.32,15.37.14.05c-27.5,8.9-49.33,30.23-58.65,57.24h0ZM228.91,583.76c-6.65-28.28-10.46-57.93-11.06-88.53h23.92c8.23,5.91,19.41,10.51,33.46,13.78,24.47-1.35,31.24,1.87,20.38,9.64-16.47-.77-24.37.1-29.1,5.83l-4.19,26.09-33.41,33.19h0ZM227.09,477.6h-9.24c.42-19.78,2.14-39.19,5.1-58.1,1.32,7.32,2.96,14.63,4.91,22-4.68,14.05-4.91,26.06-.77,36.1h0ZM290.65,250.87c5.09-7.13,10.41-14.05,15.95-20.73,16.79,6.26,34.14,11.49,52.1,15.63-2.54,5.73-5.04,11.54-7.45,17.51l-3.22-2.04c-5.73-4.33-13.51-2.29-17.46-6.51-11.83-12.63-27.11-13.18-39.92-3.86h0ZM349.38,269.6l.92.6c-.82,1.72-1.82,3.22-3.37,4.18-.85,2.37-1.72,4.78-2.59,7.18-.03-1.54-.22-3.01-.58-4.41-1.37-3.17,2.4-4.78,5.63-7.55h0ZM335.51,308.52c-1.45,4.96-2.86,10.01-4.18,15.05l-3.22-5.78c2.62-2.49,5.18-5.73,7.4-9.27h0ZM345.83,337.12c7.78-31.45,17.96-60.92,30.15-87.7,23.9,4.49,48.64,7.13,74.02,7.63v101.29c-6.05,1.55-12.06,2.37-18.19,2.4-11.14-10.49-22.97-7.37-35.86-10.91-11.88.18-31.47-10.41-50.11-12.73h0ZM467.64,351.72v-94.66c25.32-.5,50.04-3.14,74.02-7.63,15.55,34.33,27.86,72.96,36.1,114.71-3.59-2.09-9.24-2.69-16.1-.5l-55.14,15.95c-16.55-.18-21.97-4.94-16.29-14.31,9.05-14.47,4.64-20.7-12.04-19.51-3.49,2.24-7,4.19-10.54,5.96h0ZM552.83,398.49c10.01-2.17,19.88-4.68,29.52-7.53.63,3.68,1.09,7.4,1.64,11.09-5.1,4.28-9.69,9.09-13.78,14.23l-3.96-1.37-15.18-5.23c-1.77-3.59-1-7.27,1.77-11.19h0ZM351.06,263.65c-1.19,2.67-3.09,4.81-6.31,5.36-8,1.32-11.09.22-19.33,2.19-2.72.63-6.1.45-7.58,2.59-1.5,2.04-.6,5.63-4.69,5.63h-4.68l3.59,7.5c.13,3.64.32,9.27,3.86,9.27h.95c2.05,0,2.05-.72,3.69-1.85,0-5.33.08-14.92,4.68-14.92,3.09,0,1.96,1.87,3.73,1.87,1.6,0,5.28-2.14,6.55-2.82,2.82.68,5.65.55,5.65,3.78v5.59c0,.32-5.28,11.31-6.18,14.4-2.32,8.18-6.65,8.82-7.87,11.74h-5.59l-2.32-3.27-2.77-9c-6.81.13-10.27-1.77-19.19-1.77-4.68.03-17.72,1.96-17.72-2.77,0-2.91,14.5-7.18,15.87-12.14l-10.91,4.41-.28-6.28c-3.73,1-3.09,2.77-7.5,2.77h-.9c-2.19,0-2.82-.63-2.82-2.77,0-5.18,7.82-18.64,10.64-21.1,3.27-2.81,13.96-13.45,18.32-13.45h7.45c4.78,0,5.73,3.27,11.19,3.72.5,2.04.95,2.14.95,4.68,0,2.77-4.64,1.74-4.64,5.59v3.73h3.69c3.54,0,9.37-3.22,9.37-6.55v-1.85c0-6.15-14.7-12.91-21.46-13.1h0c7.68-.08,15.32,3.17,21.86,10.22,3.96,4.19,11.73,2.19,17.41,6.46l3.32,2.14h0ZM264.87,292.65c.95,1.23,1.59,2.69,1.59,3.54,0,3.61-6.23,5.28-10.27,5.59,1.27-2.27,3.62-4.81,5.55-4.81.27,0,.55.05.82.13.82-1.5,1.59-2.96,2.32-4.46h0ZM319.64,341.98l-8.4-1.04-7.47-12.96c-5.81,0-11.09-2.64-11.23-8.4l6.5-1.19c1.1-1.69,3.32-4.41-.9-4.41h-3.73c-3.24,0-1.42,1.85-4.64,1.85h-7.45c-.87-10.27-1.5-4.99,8.95-6.9,7.68-1.45,7.92,1.67,14.31,2.22.68,2.64.95,1.59.95,3.73,0,1.92-1.91,1.74-3.73,1.87.55,6.73,6.23,2.36,9.24,10.41,1.85,4.86,7.58,9.05,7.58,12.01v2.81h0ZM254.45,313.88c1.05-.08,2.19,0,3.51.15,4.04.48,13.14-.15,13.14,3.67v3.73c0,1.42-3.74,11.01-3.74,17.74v5.55h-.08v11.49c3.41.28,15.37,5.23,17.32,8.47-1.64,3.22-6.68,4.81-7.92,8.13h-3.73c-3.96,0-.72-2.32-6.5-2.77.45,5.81,2.77,2.59,2.77,6.5,0,2.54-2.51,3.78-4.68,3.78-7.05,0-14.92-14.05-26.19-14.05-2.37,0-5.55,2.04-5.55,4.68v2.82l-8.64,11.68c-1.37-.77-2.5-1.09-3.24-1.59,2.64-7.05,10.77-23.37,13.01-24.87l.9-9.27c4.14-6.1,5.01-19.41,10.42-24.77,1.85-1.87,3.68-3.51,6.21-4.33.97-2.27,1.96-4.49,2.96-6.73h0ZM315.02,322.38c0-4.78,11.22-2.54,11.22.92v1.9c0,2.86-3.54,6.31-5.68,7.42-2.09-1.1-5.55-2.51-5.55-5.6v-4.64h0ZM371.98,351.35c0,1.14-1.91,2.77-3.73,2.77-2.87,0-14.28-3.51-16.64-4.86-1.77-1.05-4.91-1.64-8.13-2.09.45-1.96.85-3.88,1.32-5.73,8.67,1.32,27.18,5.86,27.18,9.91h0ZM376.67,355.99c3.73-.97,3.04-2.77,7.4-2.77h4.73c2.5,0,2.56.4,4.68.9l.87,2.87c-1.59,2.99-6.63,7.45-11.17,7.45h-1.87c-2.36,0-4.63-3.91-4.63-5.65v-2.81h0ZM460.72,366.26h-.68c2.59-1.82,5.41-3.46,5.46-3.46l2.14-.87v-4.99c2.46-1,13.41-5.6,13.63-5.6h2.77c3.09,0,.74.82,4.69,1.87v2.77c0,3.81-3.27,13.1-6.6,13.1h-4.64c-3.94,0-4.94-2.1-8.08-3.19-3.22-1.14-4.14.37-8.69.37h0ZM396.26,367.22c.53-2.19.95-3.78,3.73-3.78h.9c2.59,0,2.27.77,2.82,2.82l-7.45.95h0ZM445.77,370.04h-7.5c-1.79,0-1.69-.32-2.79-.95.5-2.14.97-3.74,3.74-3.74,2.04,0,6,.5,10.77,1.37v5.41c-1.42-.18-2.87-.27-4.23-.27v-1.82h0ZM457.55,368.25c12.23,2.74,25.59,7.05,25.59,11.11v6.5l7.18,3.81c-3.04.18-6.1.37-9.19.55v1.19l7.28,3.78c-.18.03-.42.03-.63.03-.65,0-7.52-3.91-9.47-4.49-6.72-2.19-3.46-2.54-8.27-5.78h-8.87c-.53-1.35-1.4-2.54-2.64-3.44l4.96.77c-.08-3.69-2.19-6.15-5.28-7.82,3.19.82,6.41,1.67,9.42,2.59v-5.41l-.05-.05c-3.27-1.14-4.14.37-8.64.37s-3.59-1.72-1.4-3.69h0ZM428.95,370.94c0,.45-2.42,4.69-4.64,4.69-3.54,0-1.82-.65-5.64-.97-1.22,2.64-.35,4.69-3.73,4.69-.85,0-1.82-1.05-1.85-1.87l.22-12.14-.22-2.81c0-2.51.45-2.61,1-4.51l2.72-1.03c5.63,2.94,12.14,5.58,12.14,13.95h0ZM403.71,375.63c0-2.56.45-2.61.95-4.69,2.77.23,4.68.68,4.68,3.73,0,2.19-1.54,3.78-3.78,3.78-1.3,0-1.85-1.32-1.85-2.81h0ZM380.4,371.86h14.9c5.78,0,4.06,8.54,3.74,12.13h-9.32l-5.65-3.59-10.27-2.72.05-3.01c3.27-1.17,1.82-2.81,6.55-2.81h0ZM537.25,383.62c.27-.27.53-.5.82-.72,4.86-3.82,17.01-11.37,23.5-12.86,1.45.95,2.82,1.22,2.82,3.72v1.87c0,.63-.23,1.35-.68,2.12l-2.09.55c.08.27.08.63.08,1.05v1.03c-7.13,7.78-26.28,19.19-26.28,30.74v1.87c0,4.13,22.95,14.92,28.05,14.92h2.77c-.32-3.96-12.09-9.61-14.95-10.24v-1.9l11.17,2.22c.74.82,14.52,7.55,24.5,12.23.23,2.19.42,4.41.6,6.68,3.22,1.42,5.68,2.42,6.55,2.64l-.87-6.55c1.82.79,3.22,1.32,3.82,1.5l-.79-5.81c2.19-1.6,5.15-3.41,7.83-5.1l-.32-3.14c4.13-2.64,8.64-5.36,9.67-6,5.86-3.37,13.2-6.15,21.92-6.15v-1.85l10.24-1.14,15.9.18c3.82,0,21.68,8.03,25.74,9.72,2.72,1.14,5.09,2.27,7.21,3.46.42,2.82.87,5.68,1.29,8.55,2.81,2.22,5.36,4.86,7.95,8.27,5.86,7.73,10.22,14.63,12.91,22.82-.42-5.63-.82-11.22-1.4-16.82,5.81,10.01,8.77,20.38,8.27,36.1h-4.01c.1,3.41-.08,7.05-.35,11.06-.18,2.22-.47,4.41-.87,6.58h3.09c-1.09,4.38-2.54,8.55-4.36,12.46.08-2.54.18-5.13.27-7.72-2.54,10.04-7.18,19.09-13.6,26.81-13.86,14.1-34.04,22.55-57.09,22.55h-10.27c-16,0-34.14-15-43.25-23.08-8.9-7.97-19.32-29.2-19.32-46.02v-5.58c0-5.78,4.69-21.01,4.69-21.51v-4.68c0-3.69-8.64-6.51-13.15-6.51l-1.64-2.09c-.18-9.82-3.17-7.32-10.04-10.49-5.01-2.32-8.42-4.59-13.78-6.78-16.1-6.6-6.73-11.46-27.78-11.46,0,0-4.83-4.59-8.37-8.64h2.5c.45,1.74.95,2.69,2.14,3.22,1.64-.18,3.28-.4,4.91-.58.58-.77,1.22-1.69,3.09-1.69,11.09,0,4.68-.22,10.36-6.26,2.37-2.51,6.41-6.73,8.92-8.74,2.14-1.69,5.73-4.09,9.59-6.41-2.64.55-5.31,1.05-7.95,1.59h0ZM579.84,441.36l16.24,7.1c-.32-.63-.45-1.27-.55-2.1h3.73c.79,0,1.69.23,2.64.6-1.14-.68-2.04-1.64-2.49-2.91-.47-.73-.79-1.64-.92-2.69h3.69c-.74-.63-1.29-1.09-1.55-1.4l.23-.28c-.32-.27-.6-.54-.68-.72,1-1.55,2.22-2.91,3.54-4.19l.1-.17c-.28-.28-.55-.55-.65-.74,5.78-8.64,16.97-12.78,27.28-16.64,6.23-2.27,33.06-3.96,38.7-.77,2.72,1.54,23.55,9.59,25.46,15.27.77,1.24.87,2.37-.1,3.33-1.08,1.08-21.1-14.18-28.23-14.18h-13.1c-12.23,0-42.04,5.04-42.04,13.95,0,.28.08.6.13.82,3.81,5.51,24.14,8.37,25.46,13.6.42.45.58,1,.58,1.45,0,1.37-1.32,1.9-2.81,1.9s-23.15-11.59-29.33-16.35c.13,1.99.27,3.94.42,5.95,5.58,2.37,13.58,8.92,19.09,10.37v.85c.13.05.32.1.5.1v4.81c6.63,2,10.91,8.74,18.14,9.19,4.28.27,10.27-.95,12.36,1.69.18.27.37.63.5,1.05.72.9,1.05,3.17,1.9,5.08.79,1.42,1.96,2.46,3.91,2.46h2.82c2.96,0,6.55-4.76,6.55-8.4v-.92c0-.45-.08-.85-.27-1.27-.28-.5-.55-1-.87-1.69-.74-1.35-1.59-3.22-1.69-6.4,3.46.27,5.28,1.85,6.28,4.18,2.54,4.36,1,12.18,1.27,18.32l2.77,3.64h5.59c1.5,0,9.72-5.91,12.14-6.55-.18.58-.47,1.09-.87,1.54.55-.27,1-.45,1.37-.54-.82,2.14-2.82,3.49-4.83,4.76-.14.15-.18.32-.37.5.55-.27,1-.5,1.37-.53-1,2.67-4.01,4.18-6.5,5.73v1.67c0,.5.35,1.42.85,2.51v.05h0c2.1,3.99,5.96,9.72,7.05,11.41l-.18-.05.74,1.05c-4.68-1.24-4.01-4.68-7.5-4.68-15.42,0-17.96,10.27-21.46,10.27h-4.73v3.73c0,.4.1.77.18,1.09,1.19,1.64,3.51,2.56,4.59,5.36.37.55.68,1.19.87,2-2.32-.69-8.97-6.36-10.11-9.46-.4-.73-.63-1.32-.63-1.87v-7.45c3.46-.9,12.88-6.65,15.28-10.56h-8.1c-3.67,2.32-8.95,5.01-15.13,5.01h-1.87c-2.04,0-3.22-1.24-3.94-2.96-.6-.92-.97-2.05-1.19-3.32l4.73.32-.05.95.55.05v.28h5.04c1.72,0,1.82-.37,2.04-.73-.03-.27-.08-.5-.13-.69-2.14-3.17-8.4-4.09-9.72-5.81-1.14-1.45-1.69-2.42-1.96-3.14-.82-1.4-.82-2.05-.95-2.64-.6-.82-2.19-2.04-6.15-4.63l-6.05.45-.68-.79h16.1c-.82-.82-2.4-1.99-6.05-4.44l-6.15.45-8.82-9.77-5.41-.28-37.55-19.36v-.73l-.45-.22v-1.87h0ZM604.9,448.33c2.77,1.09,5.73,1.91,7.23,4.26.22.55.35,1.15.4,1.82l-.45,1.05-5.86-2.56c-.05-1.3-.13-2.59-.23-3.94-.37-.23-.72-.42-1.08-.63h0ZM614.35,466.37l.5.23c0,13.63.82,11.41,3.96,21.41,1.32,4.13-.5,5.18-3.09,4.68.32,1,.4,1.87.4,2.54h-5.5v.28l.5.05c0,2.62-.47,5.63-2.77,5.63-.32,0-.87-.13-1.42-.37-.08,1.42-.13,2.82-.13,4.22-.37.42-.87.63-1.5.63-2.04,0-10.32-4.81-15.95-8.99v-1.47h-1.91c-1.74-1.4-3.01-2.59-3.46-3.44l.45.22c-.45-.4-.77-.85-.95-1.19l13.91,7.18,4.86.55c-6-3.36-14.18-9-15.37-11.41l.42.27c-.42-.45-.79-.9-.97-1.27l14.05,7.32,5.59.6c-1.32-1-2.36-2.11-2.51-2.96-.32-.45-.5-.87-.5-1.24,0-2.27,1.69-3.12,3.06-4.31-.05-.15-.05-.23-.05-.32,0-1.45.74-2.37,1.59-3.14v-4.51h3.09v-6.45c-.95-.45-2.36-1.32-3.86-2.4.05,2.3.13,4.59.18,6.87-3.22-1.74-9.37-6.97-11.91-6.97h-3.69c-.5,0-.82.05-1.09.1-.68,3.73-2.22,8.32-3.96,9-.85,2.62-2.04,4.81-3.27,4.81-1.64,0-2.4-.4-2.67-1.59-.42-.42-.6-1.1-.6-2.19v-1.19h4.51c-.6-.22-.92-.63-1.05-1.35-.45-.42-.58-1.14-.58-2.19v-.95c0-5.36,4.64-14.05,4.64-16.82h0c-.33-.23-.68-.45-1-1.4-.42-.5-.82-1.5-.87-4.19l3.09,1.59-.05-.85,18.01,7.87.1,2.31,7.77,4.06v.72h0ZM598.48,463.86c1.22.18,2.91,1.24,4.73,2.42l-4.73-2.42h0ZM647.41,507.25c1.64,3.19,4.86,10.22,4.86,11.68v9.37c0,3.59.27.32-.95,2.77l-1.19.23-.23-1-.32.05-1.5-10.29c-.9-1.44-2.36-3.94-3.31-3.94-7.05,0-11.01,11.14-14.92,12.18l.08-1.27c-.22.13-.4.23-.63.27l.23-2.81-1.09-16.47c-.68-.77-1.14-1.14-1.32-1.9-.37-.5-.6-1.05-.6-2.19v-3.72l19.33,5.59.27-.9c.23.27.68,1.17,1.29,2.3h0v.05h0ZM655.49,444.14c2.91-.27,3.32-.9,6.5-.9h2.82c1.74,0,2.72.95,3.27,2.36.74,1.1.95,2.64.95,4.19v1.85c0,2.24-1.5,3.78-3.73,3.78-.77,0-7.42-5.1-9-9.05-.45-.77-.72-1.54-.82-2.22h0ZM711.18,455.78c1.24,2.22,1.77,5.18,1.77,8.05v3.72c-2.17-.18-3.54-1.55-4.36-3.46-.05-.08-.08-.23-.18-.37.42,1.55.6,3.24.6,4.91v3.73c-2.24-.18-3.51-1.54-4.33-3.46-1.82-3.04-1.72-8.22-1.72-12.36,1.99.55,3.41,2.14,4.28,4.14.08.18.22.37.32.55-.79-2.92-.68-6.6-.68-9.6,2,.55,3.41,2.1,4.31,4.14h0ZM708.96,496.42c.18,3.73,1.22,5.15-3.64,5.55v-1l-.53.05c0-2.67.45-16.69,2.77-16.69,1.09,0,1.59.63,1.8,1.45h0c.42-3.31,1.1-6.13,2.19-6.13,1,0,1.55.58,1.77,1.5,1.5,1.59-.18,6.63-.32,7.95-.69,5.86,2.19,7.82-3.78,8.32v-1h-.27ZM646.12,459.1v-3.73c4.01.3,8.92,2.81,10.14,6.08.33.45.55.92.63,1.4h-2.77c-2.94,0-5.45-1.67-7.5-2.81v-.74l-.5-.22h0ZM441.08,380.31c0-2.69.18-3.78,2.82-3.78,1.5,0,2.77.58,2.77,1.9s-1.27,1.87-2.77,1.87h-2.82ZM369.21,381.35l-.05-.13c.97.28,1.6.42,2.05.6l-2-.47h0ZM434.4,375.45c2.05,1.54,2.96,2.3,2.96,5.76v.95c0,2.24-1.55,2.77-2.82,4.64h-5.58l-1.69,2.09-.1,3.78-1.4,1.69-.05,3.72c-1.32,1-2.59,1.82-5.18,1.82-2.22,0-3.72-1.55-3.72-3.73v-2.82c-2.91-.23-3.33-.92-6.55-.92h-.27c2.91-1.35,4.44-2.67,5.76-3.76-2.32-.23-4.68-.5-7-.79.42-.08.87-.22,1.23-.4,10.27-4.14,6.05-8.13,20.05-7.95l4.36-4.09h0ZM408.94,392.91c-.77.9.32,3.22.4,4.99h-.4c-1.87,0-1.74,1.37-1.37,2.91h-1.03c-2.46,0-5.15-3.99-7.5-5.59-5.7,1.37-4.69,3.78-7.42,3.78-2,0-1.24-.35-3.78-.99v-1.37c3.69-3.96,15.5-1.45,20.83-3.64l.27-.08h0ZM391.8,389.58c1.67-.58,3.86-.82,6.13-.9-.08.32-.08.63-.13.9h-6ZM300.05,384.94c1.64-1.14,3.14-3.17,4.78-4.13,1.5.53,3.01,1.14,4.54,1.67v4.33c0,9.32-3.59,14.87-3.78,25.24,0,5.13-1.32,22.45-5.55,22.45-10.14,0-12.36-9.22-9.51-17.96,1.87-5.78,7.6-15.77,7.6-22.28h1.9v-5.58c-5.55.48-1.96,1.9-5.63,1.9h-.95c-2.1,0-2.74-.68-2.74-2.82,0-3.86,2.37-8.27,5.78-10.19,1.14.47,2.36.97,3.54,1.37v6h0ZM692.27,405.95c-3.36-1.59-7.23-2.77-10.14-4.73l-20.81-2.69-3.19-6.31,3.41-.37c7.63,0,11.33.68,15.87,3.78,3.78,0,8.45,1.4,13.6,3.86.4,2.14.82,4.28,1.27,6.46h0ZM711.42,412.68c11.54,9.32,21,20.5,21.18,27.78-9.09-.18-16.09-13.65-22.23-20.06.92.79,1.74,1.55,2.59,2.27-.48-3.31-.99-6.68-1.54-9.99h0ZM439.9,390.4c1.6-1,3.27-1.72,4.01-1.72h6.1v2.04c-3.41-.05-6.73-.18-10.11-.32h0ZM456.08,388.68h1.82c1.64,0,2.37.85,3.41,1.82h-2.36l-2.87-1.82h0ZM466.19,390.5l.13-.05.05.05h-.18ZM467.59,397.63c-.68.27-1.5.37-2.19.37-2.46,0-1-.6-4.68-.87-.73,2.69-9.05,10.27-11.22,10.27h-.92c-4.99,0-6-8.74-12.09-10.27,1.95-1.59,4.83-2.96,5.78-2.96h13.91c2.22,0,2.67,1.5,4.64,2.77l3.62-1.05c1.32.79,2.51.95,3.14,1.74h0ZM318.79,409.36c.18-1.05.32-2.19.4-3.36.5-3.51,1.59-6.23,4.54-6.23h.92c.45,0,4.63,2.04,8.77,4.04.23-1.77.45-3.59.73-5.36,3.17,1.54,6.36,3.04,7.77,3.49,4.68,1.5,14,4.09,19.19,5.1,5.08,1,17.96.37,23.95.37,9.69,0,15.95,1.82,22.37,1.82h5.65c5.95,0,7.08-1.82,13.05-1.82,2.59,0,5.63,4.59,5.63,6.5v1.87c0,2.36-3.17,4.31-4.63,6.55v4.63c-3.56,5.28-12.01,8.95-12.19,16.82,5.23-.4,17.46-13.45,22.42-16.82-.5-2.04-.95-2.09-.95-4.63,0-4.09,7.08-8.05,13.6-10v4.81c1.95-.45,3.78-.72,5.23-.72h12.41v-5.28h3.36c5.15,0,10.06,9.14,11.14,14.02,3.46-.1,5.65-.42,5.65-3.74,0-5.04-5.73-10.96-8.65-15.18,1.77.13,3.91.68,6.1,1.45,3.72-.22,7.45-.5,11.14-.82,2.64,1.87,4.49,3.73,4.49,5.19v3.73c-3.62,1-4.68,4.91-4.68,9.37s2.91,8.4,5.59,10.27l1.09,9.32,1.87,2.67,1.03,15.05-.22,11.22-8.32-3.86-2.24-19.46-6.58-5.23c.32-6.45,1.95-8.37-3.41-8.82l-1.19,9.32c-7.6,4.14-9.55,8.9-17.32,13.28-6.73,3.72-12.7,7.18-19.19,10.72-6.63,3.59-33.27,22.73-37.97,22.73h-.95c-2.17,0-2.82-.68-2.82-2.77v-3.82c0-6.72,1-12.26,2.11-18.41,1.03-6.1,5.41-11.59,5.41-15.18v-.92c0-2.12-.63-2.81-2.82-2.81-1.37,0-10.46,13.1-15.87,13.1-2.54,0-6.63-9.15-9.32-11.24-2.22-1.82-10.01-4.86-13.68-5.95-8.82-2.59-27.56-2.51-33.06-6.18-4.46,0-23.32.35-23.32-3.69v-1.45c.77-5.55,2.22-14,2.82-16.09.58-2.14.77-4.91.95-7.6h0ZM380.4,470.88h-2.82c-.55,0-13.68-7.55-14.97-8.37h-6.55c-1.67-1.14-1.59-1.87-3.67-1.87h-4.73c-4.46,0-5.81,1-8.42,2.72-7.53,0-17.54,3.11-24.09,4.88-10.64,2.91-12.83,1.67-25.37,1.67l-2.67-1.95c-8.1.15-32.84-11.59-32.84-17.64v-.9c0-3.91,9.79-9.37,14.02-9.37h30.82c3.01,0,2.64,2.91,7.45,2.87,1.82,0,3.32-.42,5.46-.74-.13,1.69-.22,3.37-.32,5.01,1.05-.1,2.22-.23,3.72-.23,3.96,0,4.83,1.91,11.06,1.91.95,0,1.85-.03,2.81-.08.05-1.64.15-3.32.28-5.01,3.46-.03,7.05-.22,10.27.37,7.55,1.42,17,1.45,17.19,9,5.55-.13,6.45-3.73,14-3.73s9.45,6.26,14.05,9.32l1,10.27c-1.9.95-2.91,1.87-5.68,1.87h0ZM530.75,440.04s2.62-1.85,2.81-1.85c3.91,0,16.87,8.63,16.87,11.22v9.32c0,5.13-1.9,5.18-1.9,10.27v8.59h-2.56v5.28c-.5.1-1.08.18-2.14.18h-11.17c-2.87,0-3.73-2.72-3.73-5.63v-11.19l1.82-26.19h0ZM385.07,493.33v-2.82c0-.58-1.5-6.71-2.32-10.14l3.06-.08c6.36,0,8.13,8.55,10.31,14.95h3.14c5.91,11.93,6.28.97,8.29,19.51.53,4.96,6,16.69,8.03,21.82,2.19,5.15,4.41,19.33,10.56,19.33h1.9c2.59,0,12.96-5.59,21.97-11.46v3.06c6.63-4.38,12.13-8.74,12.63-10.72,1.37,0,3.09-.55,5.01-1.34v-3.54c6.41-2.14,16.05-8.69,18.27-8.69h2.82c4.09,0,7.5,2.27,8.35,5.59l4.28-2,4.19-.82,1.85,11.24-4.36,3.36-.32,2.27h-5.65c-2.62,0-9.45,12.01-12.08,14.05-6.7,5.15-7.97,5.96-15.84,10.27-1.99,1.14-2.22,2.77-2.77,4.64-1,.87-1.27,2-1.64,3.32-.13.08-.22.22-.37.35-.9,1.1-5.55,4.41-7.27,5.83-3.33,2.67-12.59,8.13-17.01,9.19l-1.22-1.69,1.27-.82-1.82.08-.23-.32-.4-1.04,12.28-7.65v2.82l5.95-3.67c-.22-1.24-.18-1.96-.85-2.27l2.59-1.69c-.37-1.72-.05-2.45-2.59-2.45-2.96,0-5.91,3.67-12.14,3.67h-8.42c-2.64,0-4.41-3.67-9.35-3.67h-2.77v2.77c0,5.23-1.82,12.14-6.55,12.14h-8.42c-3.59,0-.13-1.74-6.55-1.87.63-7.37,6.55-1.5,6.55-7.5,0-3.96-6.55-5.68-6.55-7.45,0-2,.37-1.23.95-3.74,2.5,0,9.69-.63,9.37-2.81l-1.09-7.47c-3.82-1.03-1.55-1.85-4.56-1.85h-.9c-2.54,0-2.54.4-4.68.95l-2-2.72c2.14-3.06,3.86-5.33,3.86-10.37,0-2.72-2.91-5.36-3.73-8.4-5.86.49-2.59,2.77-6.5,2.77-2.91,0-5.68-.83-5.68-3.74v-.9c0-2.72,5.55-3.83,8.45-9.32l-4.01-7.92c-3.31,1.05-7.27,3.24-8.13,3.24-1.96,0-1.72-1.97-1.85-3.74,3.67-.85,10.22-4.44,10.22-8.4v-1c0-1.91-3.86-10.51-5.55-11.14h0ZM382.57,477.6l.82-1.96,3.51-.08c1.96,0,3.49.77,4.73,2.04h-9.05ZM502.87,494.25h-2.96v-9.82c2.19.99,3.96,2.99,3.41,6.05l-.45,3.78h0ZM419.63,501.75c0-3.83.85-4.88,3.73-5.6.68,2.99,3.78,9.22,3.78,12.09v4.68l-7.33,4.96-.08-15.23-.08-.9h0ZM517.68,535.34h-1.8l-1.19-4.59h.13l.23.05h0l.13.05h0l.18.03h0l.13.05h0l.18.05h.13l.13.03h.08l.15.05h0l.13.05h0l.08.05h.1l.13.03h.08l.1.05h.13l.08.05h.05l.08.05h0l.05.03h.05v.05h.05l.08.05h0v.03h.1v.05h0l.03.05h0v.05h0l.05.03h0l.08.05h0v.13h0v.05h0v.08h.05v.1h0v.13h0v.08h0v.05h0v.23h0v.08h0v.1h0v.08h0v.23h0l-.05.13h0v.08h0v.15h0v.14h0v.17h0v.15h0v.13h0v.13h0v.18h0v.23h0v.14h0v.22h0v.15h0v.22h0ZM507.41,544.71c4.91-1.19,6.1.18,6.55-4.69h2.77c.5,2.1.95,2.14.95,4.69,0,7.77-14.63,22.42-18.67,22.42-3.54,0-.95-8.05-.95-11.24l-2-2.67c1.19-4.56.27-5.36,4.81-5.73v2.81c0,2.87,2.32,4.01,4.69,4.69,1.09-2.27,1.85-4.09,1.85-7.5v-2.77h0ZM380.4,571.81c-.18,0-15.92-4.41-16.69-4.91-3.14-1.87-10.14-6.55-11.69-9.72-4.31-8.92,1.77-29.28,10.59-29.28h5.65c3.78,0,11.19,12.78,11.19,17.72l2.72,1.1c.22,6.21,1.9,2.77,1.9,6.36v2.81c0,2.59-.68,2.24-2.77,2.77v4.69c0,4.36,1.77,2.81,1.87,8.45h-2.77ZM522.7,553.3c3.04-.13,5.28.18,5.28,3.54v.92c0,2.91-7.05,12.14-11.24,12.14-2.46,0-2.72-1.32-3.99-3.01l9.95-13.6h0ZM477.5,565.21c5.55-.45,2-1.85,5.65-1.85h3.73c-.27,3.14-5.31,10.32-7.5,10.32h-3.73l1.85-8.47h0ZM359.62,572.17h0ZM365.88,586.99h0l-5.5,3.91h0l.05.05h0l.03.08h0l.05.05h0l.05.05h0l.05.08h0l.03.05h.05v.05l.05.08h.05l.03.08h0l.05.05h0l.05.1h0l.03.03h0v.05h0l.1.1h0l.05.03h0l.03.1h0l.05.03h0l.05.05h0l.08.05h0v.08h0l.1.05h0v.1h0l.08.03h0l.05.05h0v.08h.05l.08.1v.03h0l.08.1h0l.05.05h0v.03h0l.05.05v.1h0l.05.03h0l.03.1h.05l.05.03h0l.03.1h0l.05.05h0l.05.03h0l.05.05h0v.05h0v.05h0l.08.03h0v.1h0l.05.03h0l.08.05v.05h0v.08h0l.1.05h0v.1h0v.03h0v.05h0v.05h.03v.03h0v.05h0v.05h0v.13h0v.13h0v.14h0l-.03.18h0v.13h0v.15h0v.08h0v.13h0v.13h0v.13h0v.1h0v.08h0l-.1.13h0v.1h0v.08h0v.1h0l-.03.13h0l-.05.08h0l-.05.05h0v.1h0v.13h0v.05h0l-.08.08h0v.13h0l-.05.08h0v.05h0l-.05.1h0l-.05.08h0l-.03.05h0l-.05.08h0v.1h0l-.05.03h0v.1h0l-.08.08h0v.1h0v.08h0l-.05.05h0v.08h0l-.05.15h0l-.08.03h0v.05-.05h0l.08-.03h0l.05-.15h0v-.08h0l.05-.05h0v-.08h0v-.1h0l.08-.08h0v-.1h0l.05-.03h0v-.1h0l.05-.08h0l.03-.05h0l.05-.08h0l.05-.1h0v-.05h0l.05-.08h0v-.13h0l.08-.08h0v-.05h0v-.13h0v-.1h0l.05-.05h0l.05-.08h0l.03-.13h0v-.1h0v-.08h0v-.1h0l.1-.13h0v-.08h0v-.1h0v-.13h0v-.13h0v-.13h0v-.08h0v-.15h0v-.13h0l.03-.18h0v-.14h0v-.13h0v-.13h0v-.05h0v-.05h0v-.03h-.03v-.05h0v-.05h0v-.03h0v-.1h0l-.1-.05h0v-.08h0v-.05l-.08-.05h0l-.05-.03h0v-.1h0l-.08-.03h0v-.05h0v-.05h0l-.05-.05h0l-.05-.03h0l-.05-.05h0l-.03-.1h0l-.05-.03h-.05l-.03-.1h0l-.05-.03h0v-.1l-.05-.05h0v-.03h0l-.05-.05h0l-.08-.1h0v-.03l-.08-.1h-.05v-.08h0l-.05-.05h0l-.08-.03h0v-.1h0l-.1-.05h0v-.08h0l-.08-.05h0l-.05-.05h0l-.05-.03h0l-.03-.1h0l-.05-.03h0l-.1-.1h0v-.05h0l-.03-.03h0l-.05-.1h0l-.05-.05h0l-.03-.08h-.05l-.05-.08v-.05h-.05l-.03-.05h0l-.05-.08h0l-.05-.05h0l-.05-.05h0l-.03-.08h0l-.05-.05h0l5.5-3.91h0ZM350.61,575.76h0v.08h0v.13h0v.13h0v.1h0v.08h0v.1h0v.08h0v.1h0v.13h0v.05h0v.08h0v.13h0v.1h0v.03h0v.1h0v.08h0l.08.1h0v.05h0v.08h0v.13h0v.14h0l.05.05h0v.05h0v.08h0l.05.1h0l.05.13h0v.03h0l.03.05h0l.05.1h0l.05.03h0v.1h0l.03.05h.05v.03h0l.05.05h0l.05.05h0l.08.03h0v.05h0l.08.05h0l.05.03h0v.05h.18l.05.05h0l.08.05h.05l.08.03h.18l.1.1h.13l.14.05h.23l.08.03h.45-.45l-.08-.03h-.23l-.14-.05h-.13l-.1-.1h-.18l-.08-.03h-.05l-.08-.05h0l-.05-.05h-.18v-.05h0l-.05-.03h0l-.08-.05h0v-.05h0l-.08-.03h0l-.05-.05h0l-.05-.05h0v-.03h-.05l-.03-.05h0v-.1h0l-.05-.03h0l-.05-.1h0l-.03-.05h0v-.03h0l-.05-.13h0l-.05-.1h0v-.08h0v-.05h0l-.05-.05h0v-.14h0v-.13h0v-.08h0v-.05h0l-.08-.1h0v-.08h0v-.1h0v-.03h0v-.1h0v-.13h0v-.08h0v-.05h0v-.13h0v-.1h0v-.08h0v-.1h0v-.08h0v-.1h0v-.13h0v-.13h0v-.08h0l9-3.59-9,3.59h0ZM478.05,588.04c2.82-4.28,15.92-9.74,20.96-9.74v3.72c0,3.27-6.68,5.83-8.42,8.47-6.45,0-4.94,1.85-9.32,1.85h-3.78v-2.14c.82-.68,1.77-1.35,2.96-2.09l-2.41-.08h0ZM391.62,597.03c-5.46,0-12.01-6.13-13.15-10.31h-3.72v-3.72c7.28.17,9.19,5.81,13.1,8.4,2.96-.27,3.32-.9,6.55-.9.9,0,1.45.58,1.72,1.49-3.73.5-7.45,1.1-11.09,1.74.5.5,1.05.95,1.69,1.4,2.91-.27,3.32-.9,6.46-.9.67,0,1.17.32,1.45.82-1.32,1-2.96,1.99-3.01,1.99h0ZM365.88,586.99l-5.5,3.91h0l.05.05h0l.03.08h0l.05.05h0l.05.05h0l.05.08h0l.03.05h.05v.05l.05.08h.05l.03.08h0l.05.05h0l.05.1h0l.03.03h0v.05h0l.1.1h0l.05.03h0l.03.1h0l.05.03h0l.05.05h0l.08.05h0v.08h0l.1.05h0v.1h0l.08.03h0l.05.05h0v.08h.05l.08.1v.03h0l.08.1h0l.05.05h0v.03h0l.05.05v.1h0l.05.03h0l.03.1h.05l.05.03h0l.03.1h0l.05.05h0l.05.03h0l.05.05h0v.05h0v.05h0l.08.03h0v.1h0l.05.03h0l.08.05v.05h0v.08h0l.1.05h0v.1h0v.03h0v.05h0v.05h.03v.03h0v.05h0v.05h0v.13h0v.13h0v.14h0l-.03.18h0v.13h0v.15h0v.08h0v.13h0v.13h0v.13h0v.1h0v.08h0l-.1.13h0v.1h0v.08h0v.1h0l-.03.13h0l-.05.08h0l-.05.05h0v.1h0v.13h0v.05h0l-.08.08h0v.13h0l-.05.08h0v.05h0l-.05.1h0l-.05.08h0l-.03.05h0l-.05.08h0v.1h0l-.05.03h0v.1h0l-.08.08h0v.1h0v.08h0l-.05.05h0v.08h0l-.05.15h0l-.08.03h0v.05-.05h0l.08-.03h0l.05-.15h0v-.08h0l.05-.05h0v-.08h0v-.1h0l.08-.08h0v-.1h0l.05-.03h0v-.1h0l.05-.08h0l.03-.05h0l.05-.08h0l.05-.1h0v-.05h0l.05-.08h0v-.13h0l.08-.08h0v-.05h0v-.13h0v-.1h0l.05-.05h0l.05-.08h0l.03-.13h0v-.1h0v-.08h0v-.1h0l.1-.13h0v-.08h0v-.1h0v-.13h0v-.13h0v-.13h0v-.08h0v-.15h0v-.13h0l.03-.18h0v-.14h0v-.13h0v-.13h0v-.05h0v-.05h0v-.03h-.03v-.05h0v-.05h0v-.03h0v-.1h0l-.1-.05h0v-.08h0v-.05l-.08-.05h0l-.05-.03h0v-.1h0l-.08-.03h0v-.05h0v-.05h0l-.05-.05h0l-.05-.03h0l-.05-.05h0l-.03-.1h0l-.05-.03h-.05l-.03-.1h0l-.05-.03h0v-.1l-.05-.05h0v-.03h0l-.05-.05h0l-.08-.1h0v-.03l-.08-.1h-.05v-.08h0l-.05-.05h0l-.08-.03h0v-.1h0l-.1-.05h0v-.08h0l-.08-.05h0l-.05-.05h0l-.05-.03h0l-.03-.1h0l-.05-.03h0l-.1-.1h0v-.05h0l-.03-.03h0l-.05-.1h0l-.05-.05h0l-.03-.08h-.05l-.05-.08v-.05h-.05l-.03-.05h0l-.05-.08h0l-.05-.05h0l-.05-.05h0l-.03-.08h0l-.05-.05h0l5.5-3.91-1.8,7v.05-.05l1.8-7h0ZM414.94,607.45l-2.22.27c.13-1.32.5-1.67.82-3.31-2.06-.5-2.09-.97-4.59-.97-1.19,0-7.45,3.74-13.83,6.51-12.09,1.8-23.95,4.13-35.63,6.95l-4.28-5.1c-11.24,0-16.42-3.41-29.68-1.95-15.52,1.74-13.73,3.82-23.84,10.46-5.95,3.91-14.58,9.91-18.36,15.87-.28.45-1.6,4.18-3.14,8.72l-1.09.5c-2.14,6.41-4.28,12.96-4.28,13.23l-.37,14.1,2.22,14.83c3.78,5.68,5.15,12.13,9.32,17.77,5.28,7.08,7.78,8.22,14.28,13.81,9.54,8.13,28.36,12.6,42.96,9.77,12.99-2.54,31.42-9.64,37.28-18.77,5.59-8.72,14.27-27.36,12.36-43.05l-1.27-20.6c-1.37-1.96-2.05-4.68-4.73-4.68-2.19,0-3.72,1.59-3.72,3.73v2.86c0,3.51,2.77,7.82,2.77,14.92v7.45c0,4.73-1.45,5.01-1.87,9.32h-6.5c-3.96,0-5.68,1.5-6.55,4.69-4.33,0-7.77-1.14-10.22-.92-.23,0-.47.05-.65.1l1,2.81c-.45-.03-.85-.03-1.22,0-4.51.37-4.36,3.69-7.5,3.69h-2.77c-.55-2.46-.92-1.77-.92-3.64,0-.77.37-1.37.87-1.96-.05-.23-.08-.55-.08-1,0-2.45,4.31-4.33,6.36-6.76,3.22-4.01.9-6.15,7.69-6.33.67,2.51,2.59,5.65,5.58,5.65h2.82c4.54,0,10.27-4.33,10.27-9.37,0-2.27-1.5-2.72-2.81-4.68-8.69,0-8.1-4.69-10.29-4.69-.22,0-7.18,6.15-13.73,12.06l.55,1.77c-5.91,5.26-11.86,10.82-12.59,11.78-.37.53-.77,1.22-1.14,2l-.18-.55c-1.64,4.59-2.99,10.67-4.41,13.31-1.64,2.91-10.77,11.06-13.31,11.06h-3.78c-2.87,0-8.05-4.54-8.37-8.42h6.55c3.82,0,1.37-2.54,5.73-4.59,3.96-1.82,4.41.1,4.49-5.68-3.31.27-4.99,1.87-5.58,1.87-5.09,0-7.68-1.5-12.14-1.87-1.19.77-4.04,3.73-4.69,3.73-2.67,0-4.63-5.76-4.63-7.5,0-2.64,3.22-4.68,5.59-4.68,2.17,0,4.18,1.85,5.63,2.59l11.19,1.14v-2.77c0-4.18-6.55-1.91-7.47-13.05h-2.81v1.85h-2.82c-2.14,0-2.77-.67-2.77-2.81v-.92c0-2.17,1.54-3.78,3.72-3.78,2.82,0,3.41.45,6.36,1.37l5.68-10.19-.85-.5c-2.61-.22-3.74.05-3.74-2.77v-4.68c0-5.23,6.6-5.63,12.14-5.63,1.37-.92,4.91-3.74,6.55-3.74h.9c3.51,0,.6-.22,2.61.82.14-.32.22-.53.35-.82h-.14c.82-9.72,10.19-2.41,11.23-14.95,2.51-.58,1.74-.92,3.74-.92,2.17,0,3.73,1.55,3.73,3.74v3.78c4.86-.18,7.68-4.11,12.91-5.78,3.86-1.24,10.77-2.46,15.08-3.64,2.74-.74,13.51-1.82,16.82-1.87,7.97-.08,8.24-2.77,15.92-2.77h2.82c5.55,0,16.77,3.06,16.77-1.85,0-2.27-4.28-6.55-6.55-6.55-3.22,0-1.4,1.85-4.68,1.85h-6.5c-2.77,0-6.65-.08-8.42-1.67h0ZM346.34,637.72c3.41-1.22,10.19-5.13,14.42-5.21v2.77c-2.69.22-21.36,12.18-24.29,12.18h-.63c2.74-.77,4.78-2.32,5.51-5.15-.37-.18-.6-.32-.79-.45.32-.32.63-.77.82-1.22,0,.27,0,.5-.03.77h2.77c.58,0,1.64-.37,2.96-.95l-.74-2.74h0ZM303.83,615.64c7.32-5.15,7.63-7.23,17.82-8.79l.42,2.32c-6.15,2-12.24,4.19-18.24,6.47h0ZM330.89,663.33c.03-3.01.99-4.99,2.46-6.6l.58,2.05c1.9-1.59,4.36-2.74,6.81-4.09,3.41-2,6.05-3.74,8.64-5.46l-.63-2.27c2.1-1.32,4.09-2.72,6.41-4.18,4.33-2.69,10-4.51,14.97-7.47,2.54-1.5,11.49-8.45,13.05-8.45h1.9c2.19,0,3.73,1.59,3.73,3.73v1c0,1.9-37.69,40.42-45.79,41.06-.63-2.72-4.59-9.32-7.5-9.32h-4.63ZM285.1,551.21h-3.78,3.78ZM343.16,536.26h-1.1,1.1ZM361.7,581.13h-2.82,2.82ZM242.54,665.46c-.82.55-1.64,1.14-2.54,1.64.9-.5,1.72-1.09,2.54-1.64h0ZM100.06,477.6c1.69-70.59,23.82-136.12,60.6-190.94,18.96,19.86,40.51,37.83,64.24,53.47-15.05,42.59-23.77,88.93-24.69,137.47h-100.16ZM200.21,495.23c1.05,55.74,12.33,108.58,31.79,156.13-22.6,14.18-43.25,30.42-61.74,48.38h0c-42.56-57.43-68.34-127.99-70.21-204.51h100.16ZM739.91,709.43h0ZM739.33,710.25l-.08.03.03-.03h.05ZM738.96,710.65l-.03.1.03-.1h0ZM738.93,710.75h-.1.1ZM736.55,713.65l-.08.08h0l.08-.08h0ZM736.47,713.74c-22.92,27.88-49.88,52.25-80.06,72.21-13.78-7.15-28.2-13.56-43.06-19.11,26.06-28.68,48.14-62.14,65.19-99.15,21.15,13.55,40.61,29.01,57.93,46.05h0ZM677.59,667.1l-2.56-1.64c.84.55,1.69,1.14,2.56,1.64h0ZM673.4,664.46c-.77-.45-1.45-.82-2.12-1.27.67.45,1.35.82,2.12,1.27h0ZM665.55,659.78c-.74-.47-1.45-.87-2.24-1.23-17.41,38.47-40.56,72.98-68.02,101.89-15.08-4.96-30.53-9.1-46.4-12.38,18.36-35.91,33.01-76.92,42.96-121.57l-.79-.22c26.46,8.72,51.38,20,74.48,33.51h0ZM579.07,622.55c-1.19-.37-2.27-.74-3.46-1.05,1.19.32,2.27.69,3.46,1.05h0ZM177.66,709.43l-.13-.18h-.05l.18.18h0ZM638.85,796.9h-.05c-36.68,21.26-77.42,36.32-120.84,43.5,29.92-15.27,57.51-35.51,82.07-59.73,13.31,4.78,26.27,10.22,38.82,16.24h0ZM581.11,774.49c-27.6,25.77-59.05,46.32-93.11,60.28,19.23-19.69,36.83-43.38,52.15-70.47,13.96,2.72,27.64,6.13,40.96,10.19h0ZM522.06,761.26c-15.97,27.23-34.28,50.65-54.42,69.42v-74.01c18.51.35,36.73,1.9,54.42,4.59h0ZM450,756.67v74.01c-20.14-18.77-38.52-42.19-54.47-69.42,17.72-2.69,35.91-4.24,54.47-4.59h0ZM377.44,764.3c15.37,27.09,32.91,50.78,52.18,70.47-34.09-13.96-65.51-34.51-93.16-60.28,13.38-4.06,27.01-7.47,40.97-10.19h0ZM317.56,780.67c24.56,24.22,52.15,44.47,82.12,59.73-43.43-7.18-84.2-22.23-120.85-43.5h-.03c12.45-6.01,25.41-11.46,38.77-16.24h0ZM674.87,199.94c27.13,20.46,51.28,44.75,71.59,72.06-17.67,18.98-37.92,36.15-60.18,51.2-14.82-36.78-34.51-70.47-58.11-99.87,16.24-6.88,31.84-14.7,46.7-23.39h0ZM610.99,230.15c24.72,29.87,45.18,64.56,60.18,102.79-23.1,14.05-48.19,25.82-74.83,35.05-8.27-44.33-21-85.52-37.47-122.21,17.92-4.14,35.33-9.37,52.12-15.63h0ZM289.41,223.33c-23.59,29.4-43.28,63.09-58.15,99.87-22.27-15.05-42.46-32.22-60.15-51.2,20.38-27.31,44.52-51.6,71.61-72.06,14.92,8.69,30.5,16.5,46.69,23.39h0ZM258.54,188.69c41.64-28.09,89.53-47.66,141.13-56.24-36.73,18.77-69.89,44.87-98.25,76.79-14.87-6.1-29.18-12.91-42.88-20.55h0ZM319.06,215.91c31.55-34.14,69.1-60.88,110.56-77.84-24.09,24.64-45.45,55.56-63.27,91.34-16.19-3.59-32-8.13-47.29-13.5h0ZM383.85,232.92c18.49-36.41,40.86-67.25,66.15-90.7v97.2c-22.6-.5-44.73-2.69-66.15-6.5h0ZM467.64,239.42v-97.2c25.22,23.45,47.59,54.29,66.05,90.7-21.4,3.81-43.46,6-66.05,6.5h0ZM551.24,229.41c-17.77-35.78-39.19-66.7-63.24-91.34,41.46,16.95,78.92,43.7,110.53,77.84-15.28,5.36-31.05,9.91-47.29,13.5h0ZM616.2,209.23c-28.36-31.92-61.6-58.01-98.24-76.79,51.6,8.58,99.42,28.15,141.06,56.24-13.68,7.63-28,14.45-42.83,20.55Z"/>
    <polygon class="cls-1" points="0 256.24 45.6 193.5 62.05 205.49 46.77 226.55 97.05 263.05 82.1 283.7 31.77 247.15 16.5 268.25 0 256.24"/>
    <polygon class="cls-1" points="63.77 172.72 113.79 126.11 125.8 139.07 94.51 168.22 103.43 177.81 132.48 150.72 143.94 163.03 114.87 190.09 126.01 202 158.2 171.95 170.98 185.63 120.07 233.1 63.77 172.72"/>
    <path class="cls-1" d="M210.08,117.79l22.5-6.08c2.05,6.08,2.82,11.81,2.32,17.04-.55,5.33-2.22,10.14-5.18,14.47-2.92,4.31-7.5,8.5-13.78,12.41-7.63,4.76-14.5,7.55-20.73,8.37-6.18.77-12.78-.5-19.78-3.91-6.97-3.42-13.18-9.42-18.59-18.11-7.28-11.59-9.79-22.42-7.5-32.51,2.31-10.09,9.09-18.64,20.31-25.69,8.82-5.5,16.92-8.03,24.14-7.58,7.33.4,14.52,3.54,21.51,9.35l-16.42,16.2c-1.99-1.74-3.67-2.87-5.04-3.37-2.22-.9-4.49-1.27-6.81-1.08-2.32.27-4.54,1-6.68,2.36-4.91,3.09-7.42,7.42-7.6,12.96-.13,4.18,1.74,9.4,5.65,15.63,4.86,7.78,9.35,12.38,13.55,13.83,4.14,1.4,8.4.77,12.59-1.92,4.13-2.59,6.55-5.68,7.23-9.32.63-3.67.08-8-1.69-13.05Z"/>
    <polygon class="cls-1" points="228.49 51.41 250.77 42.93 296.09 74.38 279.74 31.74 302.19 23.15 331.74 100.21 309.32 108.79 264.22 77.61 280.46 119.9 258.09 128.44 228.49 51.41"/>
    <polygon class="cls-1" points="331.02 16.74 355.89 11.01 374.48 91.39 349.53 97.12 331.02 16.74"/>
    <polygon class="cls-1" points="390.8 1.59 424.31 1.05 438.13 51.01 450.22 .55 483.59 0 485.05 82.52 464.23 82.88 463.13 19.96 448.08 83.15 429.22 83.47 411.98 20.83 413.12 83.75 392.26 84.15 390.8 1.59"/>
    <path class="cls-1" d="M505.27,42.28c2.29-13.23,7.87-22.95,16.55-29.05,8.64-6.05,19.59-7.92,32.77-5.63,13.56,2.36,23.39,7.87,29.38,16.4,6.05,8.6,7.9,19.41,5.59,32.51-1.69,9.45-4.64,16.95-8.92,22.52-4.28,5.5-9.72,9.4-16.32,11.73-6.68,2.32-14.5,2.67-23.55,1.08-9.14-1.64-16.5-4.41-21.97-8.37-5.5-3.99-9.54-9.51-12.18-16.45-2.59-6.95-3.09-15.24-1.37-24.74h0ZM530.33,46.84c-1.4,8.22-1,14.36,1.45,18.49,2.46,4.14,6.28,6.65,11.56,7.6,5.36.9,9.86-.1,13.4-3.09,3.59-2.96,6.2-9.05,7.83-18.14,1.32-7.63.77-13.51-1.69-17.55-2.51-4.09-6.36-6.58-11.64-7.5-5.04-.9-9.45.18-13.14,3.22-3.73,3.06-6.32,8.69-7.77,16.97Z"/>
    <polygon class="cls-1" points="616.94 22.02 689.27 49.78 682 68.84 657.73 59.52 635.4 117.53 611.66 108.39 633.89 50.38 609.57 41.06 616.94 22.02"/>
    <path class="cls-1" d="M685.96,93.61c7.08-11.41,15.82-18.32,26.19-20.68,10.36-2.41,21.18-.1,32.54,7.05,11.66,7.27,18.67,16,21.03,26.19,2.4,10.22.1,20.95-6.92,32.22-5.18,8.18-10.71,14.01-16.7,17.56-6.05,3.49-12.54,5.09-19.59,4.73-7-.32-14.41-2.96-22.18-7.82-7.87-4.91-13.6-10.24-17.24-15.97-3.59-5.73-5.31-12.36-5.13-19.81.18-7.47,2.81-15.23,8-23.47h0ZM707.51,107.26c-4.41,7.05-6.28,12.94-5.6,17.64.69,4.78,3.33,8.54,7.82,11.36,4.64,2.92,9.19,3.64,13.65,2.19,4.41-1.4,9.09-6.05,13.95-13.86,4.14-6.6,5.78-12.23,5.06-16.95-.73-4.69-3.42-8.47-7.92-11.33-4.41-2.69-8.87-3.33-13.41-1.87-4.59,1.37-9.09,5.65-13.55,12.83Z"/>
    <path class="cls-1" d="M747.15,183.73l56.26-60.42,31.1,29c5.78,5.41,9.74,10,11.88,13.83,2.09,3.81,2.81,7.9,2.22,12.36-.63,4.41-2.77,8.55-6.31,12.41-3.14,3.33-6.55,5.6-10.29,6.63-3.62,1.1-7.45,1.27-11.36.47-2.5-.55-5.41-1.79-8.82-3.78,1.55,2.85,2.54,5.08,2.82,6.76.22,1.14.22,3.14.03,5.96-.22,2.86-.45,4.91-.9,6.21l-7.27,25.87-21.1-19.64,7.27-27.78c.95-3.54,1.27-6.13.95-7.77-.5-2.19-1.59-4.09-3.31-5.63l-1.64-1.55-22.83,24.45-18.71-17.41h0ZM799.36,165.27l7.82,7.32c.87.77,2.77,2.04,5.73,3.78,1.45.9,3.09,1.22,4.78.95,1.77-.27,3.22-1.09,4.46-2.4,1.77-1.96,2.59-4.06,2.32-6.23-.23-2.19-2.11-4.86-5.51-8l-8.13-7.68-11.46,12.28Z"/>
    <path class="cls-1" d="M829.46,227.19l15.55,18.72c-2.91,2.74-4.73,5.36-5.41,7.92-1.19,4.04-.32,8.05,2.51,12.04,2.17,2.96,4.49,4.68,7.05,5.28,2.54.58,4.76.22,6.55-1.09,1.77-1.23,2.72-3.19,2.99-5.64.28-2.54-1-7-3.78-13.36-4.59-10.56-6.55-18.96-6-25.29.55-6.31,3.46-11.36,8.63-15.18,3.46-2.49,7.47-3.86,11.91-4.09,4.51-.22,9.05,1,13.68,3.78,4.69,2.69,9.55,7.55,14.6,14.52,6.23,8.5,9.37,16.19,9.42,22.95.08,6.78-3.06,13.14-9.32,19.01l-15.28-18.59c2.59-2.74,4.01-5.41,4.14-8.05.18-2.64-.77-5.46-2.87-8.37-1.72-2.36-3.54-3.86-5.5-4.28-1.87-.5-3.54-.22-5.04.87-1,.77-1.64,1.96-1.77,3.54-.15,1.64.69,4.54,2.59,8.74,4.59,10.46,7.37,18.32,8.18,23.69.85,5.36.45,10-1.23,13.86-1.64,3.96-4.28,7.23-7.95,9.87-4.23,3.09-9.09,4.76-14.42,5.04-5.31.27-10.46-1.05-15.42-3.96-4.99-2.87-9.77-7.6-14.5-14.05-8.22-11.37-11.78-20.78-10.59-28.33,1.19-7.58,4.99-14.08,11.28-19.54Z"/>
  </g>
  <g>
    <path class="cls-1" d="M858.11,2116.46h3.97v-13.42h3.53v-3.16h-11.02v3.16h3.52v13.42ZM866.98,2116.46h9.98v-3.16h-6.03v-3.79h5.41v-3.14h-5.41v-3.32h5.77v-3.16h-9.73v16.58ZM889.6,2105.63v-.68c0-3.92-1.89-5.39-5.39-5.39-5.61,0-5.83,4.24-5.83,8.5,0,4.99.4,8.73,5.46,8.73s5.9-2.68,5.9-6.25v-.57h-3.81c-.04,2.57-.2,4.22-1.66,4.22-1.64,0-1.8-1.28-1.8-6.2,0-4.35.13-5.84,1.71-5.84,1.31,0,1.6,1.08,1.6,3.48h3.81ZM891.4,2116.46h3.53v-11.42h.04l3.46,11.42h4.48v-16.58h-3.68v10.78h-.04l-3.26-10.78h-4.54v16.58ZM905.43,2116.46h3.97v-16.58h-3.97v16.58ZM912.02,2116.46h3.53v-12.91h.05l2.71,12.91h3.06l2.57-12.91h.04v12.91h3.68v-16.58h-5.72l-2,10.88h-.05l-2.06-10.88h-5.81v16.58ZM933.95,2108.17c0-4.54.24-6.02,1.8-6.02s1.82,1.47,1.82,6.02-.24,6.02-1.82,6.02-1.8-1.45-1.8-6.02h0ZM941.67,2108.17c0-4.6-.29-8.6-5.9-8.6-5.21,0-5.92,3.34-5.92,8.6s.71,8.62,5.92,8.62c5.61,0,5.9-4.02,5.9-8.62h0ZM945.77,2116.46h3.97v-13.42h3.53v-3.16h-11.04v3.16h3.53v13.42ZM957.93,2108.17c0-4.54.24-6.02,1.78-6.02s1.84,1.47,1.84,6.02-.24,6.02-1.84,6.02-1.78-1.45-1.78-6.02h0ZM965.66,2108.17c0-4.6-.31-8.6-5.92-8.6-5.21,0-5.9,3.34-5.9,8.6s.69,8.62,5.9,8.62c5.61,0,5.92-4.02,5.92-8.62h0ZM971.68,2102.62h1.2c1.57,0,2.04.84,2.04,2.1,0,.97-.42,2.16-2.02,2.16h-1.22v-4.26ZM967.73,2116.46h3.95v-6.84h1.51c1.24,0,1.64.59,1.64,3.48,0,1.87.13,2.8.42,3.36h4.26v-.22c-.56-.23-.67-.56-.75-3.83-.05-2.23-.18-3.79-2.71-4.13v-.05c1.84-.43,2.84-1.62,2.84-4.04,0-2.26-1.17-4.31-4.54-4.31h-6.63v16.58ZM980.7,2111.4v1.08c0,3.45,2.66,4.31,5.54,4.31,3.62,0,5.74-1.51,5.74-5.26,0-5.86-7.21-4.11-7.21-7.58,0-1.2.58-1.8,1.57-1.8.58,0,.97.2,1.2.59.24.36.33.95.33,1.74h3.82v-.4c0-2.55-1.42-4.53-5.37-4.53s-5.52,2.23-5.52,4.87c0,6.2,7.23,4.2,7.23,7.78,0,.95-.4,1.98-1.78,1.98s-1.71-.95-1.71-2.21v-.57h-3.82Z"/>
    <path class="cls-1" d="M855.59,2095.72h-.69l.71-4.1h1.51c.27,0,.47.04.62.11.13.07.25.2.33.36.09.16.13.36.13.61,0,.36-.09.65-.25.88-.18.22-.46.34-.78.4.09.11.18.25.27.43.15.32.31.75.49,1.31h-.75c-.02-.13-.13-.43-.29-.93-.09-.27-.18-.45-.25-.56-.05-.09-.11-.14-.16-.16-.05-.04-.16-.05-.29-.05h-.29l-.29,1.71ZM855.99,2093.4h.36c.36,0,.6-.02.71-.05.13-.05.24-.13.31-.25.09-.11.13-.23.13-.38,0-.16-.05-.27-.16-.34-.05-.04-.18-.05-.38-.05h-.76l-.2,1.08ZM858.32,2095.72l.71-4.1h2.51l-.13.7h-1.82l-.15.92h1.75l-.11.68h-1.77l-.2,1.11h1.95l-.11.68h-2.64ZM862.18,2095.72h-.69l.69-4.1h1.37c.27,0,.46.04.6.13.15.07.25.18.35.34.07.14.13.34.13.56,0,.27-.05.52-.16.75-.09.23-.22.4-.38.5-.15.11-.33.2-.53.23-.11.02-.33.02-.67.02h-.42l-.27,1.56ZM862.56,2093.47h.2c.35,0,.58-.02.71-.07.13-.04.24-.13.31-.25.09-.13.13-.27.13-.43s-.05-.29-.18-.36c-.05-.04-.22-.05-.47-.05h-.49l-.2,1.17ZM865.33,2095.72h-.69l.71-4.1h1.51c.27,0,.47.04.62.11.15.07.25.2.33.36.09.16.13.36.13.61,0,.36-.07.65-.25.88-.18.22-.44.34-.78.4.09.11.18.25.27.43.16.32.33.75.51,1.31h-.76c-.02-.13-.13-.43-.29-.93-.09-.27-.18-.45-.25-.56-.05-.09-.11-.14-.16-.16-.05-.04-.15-.05-.29-.05h-.27l-.31,1.71ZM865.73,2093.4h.38c.35,0,.58-.02.69-.05.13-.05.24-.13.31-.25.09-.11.13-.23.13-.38,0-.16-.05-.27-.15-.34-.07-.04-.2-.05-.4-.05h-.76l-.2,1.08ZM868.06,2095.72l.71-4.1h2.51l-.13.7h-1.8l-.16.92h1.75l-.11.68h-1.77l-.18,1.11h1.95l-.13.68h-2.64ZM871.3,2094.39l.67-.04c.02.22.04.36.07.45.04.09.11.16.2.2.11.05.24.09.4.09.22,0,.36-.05.47-.14.11-.09.16-.22.16-.38,0-.09-.04-.18-.09-.27-.05-.07-.22-.18-.47-.31-.33-.18-.55-.31-.66-.41-.11-.09-.2-.2-.25-.34-.05-.14-.09-.31-.09-.48,0-.36.11-.65.33-.86.22-.22.51-.32.87-.32.38,0,.69.11.91.32.24.22.36.52.38.92l-.67.02c-.04-.4-.24-.59-.62-.59-.18,0-.31.04-.4.11-.09.07-.13.18-.13.32,0,.13.04.22.11.29.09.09.25.18.51.32.31.16.53.29.64.4.11.09.2.2.25.34.05.13.07.29.07.47,0,.38-.11.7-.36.93-.24.25-.56.38-.98.38-.29,0-.56-.07-.76-.2-.22-.13-.36-.31-.46-.52-.07-.2-.11-.43-.11-.68h0ZM874.38,2095.72l.71-4.1h2.51l-.11.7h-1.82l-.16.92h1.75l-.11.68h-1.77l-.18,1.11h1.95l-.13.68h-2.64ZM880.25,2095.72h-.66l-.91-2.75-.47,2.75h-.66l.71-4.1h.66l.91,2.75.47-2.75h.66l-.71,4.1ZM882.43,2095.72h-.71l.6-3.39h-1.02l.11-.7h2.71l-.13.7h-.98l-.58,3.39ZM885.66,2094.82h-1.35l-.42.9h-.71l1.91-4.1h.78l.55,4.1h-.66l-.11-.9ZM885.56,2094.13l-.2-1.65-.75,1.65h.95ZM889.32,2094.24l.69.13c-.15.47-.35.83-.62,1.06-.27.23-.6.36-.97.36-.4,0-.73-.16-.97-.45-.24-.29-.36-.74-.36-1.31,0-.5.09-.95.27-1.33.16-.4.38-.66.66-.86.27-.18.56-.27.87-.27.35,0,.64.11.87.34.24.22.38.56.42.97l-.67.09c-.04-.25-.11-.43-.22-.52-.11-.11-.24-.16-.42-.16-.16,0-.35.05-.51.18-.16.13-.29.34-.4.63-.13.29-.18.61-.18.97,0,.32.07.57.2.75.13.18.29.27.47.27s.35-.07.51-.22c.15-.14.25-.34.35-.63h0ZM890.19,2095.72l.75-4.1h.69l-.75,4.1h-.69ZM891.81,2094.1c0-.34.05-.7.18-1.08.15-.48.36-.84.67-1.1.29-.23.64-.36,1.04-.36s.75.14,1,.45c.27.31.4.72.4,1.26,0,.47-.09.92-.29,1.33-.18.4-.42.7-.69.88-.29.2-.6.31-.93.31-.4,0-.73-.14-.97-.43-.29-.32-.42-.74-.42-1.26h0ZM892.5,2094.1c0,.29.07.54.22.72.16.18.33.27.55.27.18,0,.35-.07.51-.22.16-.13.31-.34.44-.65s.2-.61.2-.93-.09-.59-.24-.77c-.13-.18-.31-.25-.53-.25-.18,0-.35.05-.53.2-.16.14-.31.36-.44.65-.13.31-.18.63-.18.99h0ZM897.99,2095.72h-.66l-.91-2.75-.47,2.75h-.66l.71-4.1h.66l.91,2.75.47-2.75h.66l-.71,4.1ZM898.71,2095.72l.71-4.1h2.51l-.13.7h-1.8l-.16.92h1.75l-.11.68h-1.77l-.18,1.11h1.95l-.13.68h-2.64ZM901.96,2094.39l.67-.04c.02.22.04.36.07.45.04.09.11.16.2.2.11.05.24.09.4.09.22,0,.36-.05.47-.14.11-.09.16-.22.16-.38,0-.09-.04-.18-.09-.27-.05-.07-.22-.18-.47-.31-.33-.18-.55-.31-.66-.41-.11-.09-.2-.2-.25-.34-.05-.14-.09-.31-.09-.48,0-.36.11-.65.33-.86.22-.22.51-.32.89-.32s.67.11.89.32c.24.22.36.52.38.92l-.67.02c-.02-.4-.24-.59-.62-.59-.18,0-.31.04-.4.11-.09.07-.13.18-.13.32,0,.13.04.22.11.29.09.09.25.18.51.32.31.16.53.29.64.4.11.09.2.2.25.34.05.13.07.29.07.47,0,.38-.11.7-.36.93-.24.25-.56.38-.97.38-.31,0-.56-.07-.78-.2s-.36-.31-.46-.52c-.07-.2-.11-.43-.11-.68h0Z"/>
    <path class="cls-2" d="M826.81,2110.96h0v-.02h0v.02h0ZM826.83,2110.77h0s0-.02,0-.02h0s0-.02,0-.02h0s0-.02,0-.02h0s0-.02,0-.02h0s0-.03,0-.03h0s0-.03,0-.03h.01s0-.03,0-.03h0s.01-.03.01-.03h0s.01-.03.01-.03h.01s.01-.03.01-.03h0v-.02h.02s.01-.03.01-.03h.01s.01-.03.01-.03h.01s.01-.03.01-.03h.01s.01-.03.01-.03h0v-.02h.03s.01-.03.01-.03h.02s.01-.03.01-.03h.01s.02-.03.02-.03h.01s.01-.03.01-.03h.01s.01-.03.01-.03h.01s.02-.02.02-.02h.01s.01-.03.01-.03h.01s.01-.02.01-.02h.01s.01-.02.01-.02h.01s.01-.02.01-.02h.01s.01-.01.01-.01h.01s.01-.01.01-.01h.01s.01-.01.01-.01h.01s.01,0,.01,0h.01s0,0,0,0h.01s0,0,0,0h.01s0,0,0,0h0s0,0,0,0h0s0,0,0,0h0s0,0,0,0h0s0,.01,0,.01h0s.01.01.01.01h0s0,.02,0,.02h0s0,.02,0,.02h0s0,.03,0,.03h0s0,.02,0,.02h.01s0,.03,0,.03h0s.01.03.01.03h0v.02h.02s0,.03,0,.03h0v.02h.01s.01.03.01.03h0v.02h0v.02h0v.02h.01v.02s.02.02.02.02h0v.02s0,0,0,0v.02h0v.02h0v.02h0v.02h0v.02h.01v.02h0v.02h0v.02h0v.02h0v.02h0v.02h0v.02h0v.02h0v.02h0v.02h.01s0,.03,0,.03h0s0,.03,0,.03h0v.02h0s0,.03,0,.03h0s0,.03,0,.03h0v.03h0v.02h0s0,.02,0,.02h0v.02h0s0,.01,0,.01h0s0,.02,0,.02h0s0,.01,0,.01h0s0,0,0,0h0s0,0,0,0h0s0,.01,0,.01h0s0,0,0,0h0s0,0,0,0h0s0,0,0,0h0s0,0,0,0h0s0,0,0,0h0s0,0,0,0h0s0,0,0,0h0s0,0,0,0h0s0,0,0,0h0s0,0,0,0h0s0,0,0,0h0s0,0,0,0h0s0,0,0,0h0s0,0,0,0h0s0,0,0,0h0s0,0,0,0h-.01s0,0,0,0h-.02,0l-.96-.35h0ZM828.83,2110.88h0v.2h0s0,0,0,0h0s0,0,0,0h0s0,0,0,0h0s0,0,0,0h0s0,0,0,0h0s0,0,0,0h0s0,0,0,0h0s0,0,0,0h0s0,0,0,0h0s0,0,0,0h0s0,0,0,0h0s0,0,0,0h0s0,0,0,0h0s0,0,0,0h0s0,0,0,0h0s0,0,0,0h-.01s0,0,0,0h0s0,0,0,0h0s0,0,0,0h0s0,0,0,0h0s0,0,0,0h0s0,0,0,0h0s0,0,0,0h0s0,0,0,0h0s0,0,0,0h0s0,0,0,0h0s0,0,0,0h0l.25-.33h0ZM828.58,2111.21h0,0ZM829.05,2111.9h-.02s.08-.33.08-.33l-.26.18h0s0,0,0,0h0s0,0,0,0h0s0,0,0,0h0s0,0,0,0h0s0,0,0,0h0s0,0,0,0h0s0,0,0,0h0s0,0,0,0h0s0,0,0,0h0s0,0,0,0h0s0,0,0,0h0s0,0,0,0h0s0,.01,0,.01h0s0,0,0,0h0s0,0,0,0h0s0,0,0,0h0s0,0,0,0h0s0,0,0,0h0s0,0,0,0h0s0,0,0,0h0s0,.01,0,.01h0s0,.01,0,.01h0v.02h0s0,.01,0,.01h0v.02h0v.02h0s0,.01,0,.01h0s0,.02,0,.02h0s0,0,0,0h0s0,.02,0,.02h0s0,.01,0,.01h0s0,0,0,0h0s0,0,0,0h0s0,.01,0,.01h0s0,0,0,0h0s0,.01,0,.01h0s0,.01,0,.01h0s0,.01,0,.01h0s0,.01,0,.01h0s0,.01,0,.01h0s0,.01,0,.01h0s0,.01,0,.01h0s0,.02,0,.02h0s0,.01,0,.01h0s0,.01,0,.01h0s0,.01,0,.01h0v.02l.22-.12-.06-.21h0ZM829.12,2111.57l-.07.33h-.02s.08-.33.08-.33h0ZM828.84,2111.08l-.26.13h0,.01s0,0,0,0h0s0,0,0,0h0s0,0,0,0h0s0,0,0,0h0s0,0,0,0h0s0,0,0,0h0s0,0,0,0h0s0,0,0,0h0s0,0,0,0h0s0,0,0,0h0s0,0,0,0h0s0,0,0,0h.01s0,0,0,0h0s0,0,0,0h0s0,0,0,0h0s0,0,0,0h0s0,0,0,0h0s0,0,0,0h0s0,0,0,0h0s0,0,0,0h0s0,0,0,0h0s0,0,0,0h0s0,0,0,0h0s0,0,0,0h0s0,0,0,0h0s0,0,0,0h0ZM828.58,2111.21h.01s0,0,0,0h0s0,0,0,0h0s0,0,0,0h0s0,0,0,0h0s0,0,0,0h0s0,0,0,0h0s0,0,0,0h0s0,0,0,0h0s0,0,0,0h0s0,0,0,0h0s0,0,0,0h0s0,0,0,0h.01s0,0,0,0h0s0,0,0,0h0s0,0,0,0h0s0,0,0,0h0s0,0,0,0h0s0,0,0,0h0s0,0,0,0h0s0,0,0,0h0s0,0,0,0h0s0,0,0,0h0s0,0,0,0h0s0,0,0,0h0s0,0,0,0h0s0,0,0,0h0s0-.2,0-.2l-.42.17h0v.02h0v.02h0v.02h0v.02h0s0,0,0,0h0v.02h0s0,.01,0,.01h0s0,.01,0,.01h0s0,0,0,0h0s0,0,0,0h0s0,0,0,0h0s0,0,0,0h0s0,0,0,0h0s0,0,0,0h0s0,0,0,0h0s0,0,0,0h0s0,0,0,0h0s0,0,0,0h.01s0,0,0,0h.02-.03s0,0,0,0h-.01s0,0,0,0h0s0,0,0,0h0s0,0,0,0h0s0,0,0,0h0s0,0,0,0h0s0,0,0,0h0s0,0,0,0h0s0,0,0,0h0s0,0,0,0h0s0,0,0,0h0s0,0,0,0h0s0-.01,0-.01h0v-.02h0s0,0,0,0h0v-.02h0v-.02h0v-.02h0v-.02h0l.42-.17v.2s-.25.13-.25.13h0ZM828.84,2111.08l-.26.13h0,.01s0,0,0,0h0s0,0,0,0h0s0,0,0,0h0s0,0,0,0h0s0,0,0,0h0s0,0,0,0h0s0,0,0,0h0s0,0,0,0h0s0,0,0,0h0s0,0,0,0h0s0,0,0,0h0s0,0,0,0h.01s0,0,0,0h0s0,0,0,0h0s0,0,0,0h0s0,0,0,0h0s0,0,0,0h0s0,0,0,0h0s0,0,0,0h0s0,0,0,0h0s0,0,0,0h0s0,0,0,0h0s0,0,0,0h0s0,0,0,0h0s0,0,0,0h0s0,0,0,0h0ZM828.58,2111.21h.01s0,0,0,0h0s0,0,0,0h0s0,0,0,0h0s0,0,0,0h0s0,0,0,0h0s0,0,0,0h0s0,0,0,0h0s0,0,0,0h0s0,0,0,0h0s0,0,0,0h0s0,0,0,0h0s0,0,0,0h.01s0,0,0,0h0s0,0,0,0h0s0,0,0,0h0s0,0,0,0h0s0,0,0,0h0s0,0,0,0h0s0,0,0,0h0s0,0,0,0h0s0,0,0,0h0s0,0,0,0h0s0,0,0,0h0s0,0,0,0h0s0,0,0,0h0s0,0,0,0h0s0-.2,0-.2l-.42.17h0v.02h0v.02h0v.02h0v.02h0s0,0,0,0h0v.02h0s0,.01,0,.01h0s0,.01,0,.01h0s0,0,0,0h0s0,0,0,0h0s0,0,0,0h0s0,0,0,0h0s0,0,0,0h0s0,0,0,0h0s0,0,0,0h0s0,0,0,0h0s0,0,0,0h0s0,0,0,0h.01s0,0,0,0h.07ZM828.83,2110.88v.2s0-.2,0-.2h0ZM829.07,2112.29l-.22.11h0s0-.01,0-.01h0s0-.01,0-.01h0s0-.02,0-.02h0s0-.01,0-.01h0s0-.02,0-.02h0v-.02h0s0-.01,0-.01h0s0,0,0,0h0s0,0,0,0h0s0-.01,0-.01h0s0-.01,0-.01h0s0-.01,0-.01h0s0,0,0,0h0s0,0,0,0h0l.16.06h0ZM833.46,2089.28c-9.71,0-17.59,7.88-17.59,17.59s7.87,17.59,17.59,17.59,17.59-7.88,17.59-17.59-7.88-17.59-17.59-17.59h0ZM842.4,2101.8c-.85,0-1.64.22-2.33.61-.01-.08-.02-.16-.04-.24,1.3-.44,2.52-1,3.65-1.68.18.54.34,1.09.48,1.65-.54-.21-1.14-.34-1.76-.34h0ZM845.12,2102.65c-.18-.9-.43-1.77-.73-2.61,1.11-.73,2.11-1.57,3-2.5,1.72,2.56,2.75,5.62,2.83,8.92h-3.1c0-1.58-.79-2.97-2-3.81h0ZM847.04,2107.28h3.18c-.09,3.58-1.29,6.87-3.28,9.56h0c-.86-.84-1.83-1.6-2.88-2.26.57-1.4.99-2.89,1.24-4.46.9-.69,1.54-1.69,1.75-2.84h0ZM844.36,2110.68c-.24,1.21-.58,2.37-1.02,3.47-1.09-.62-2.26-1.14-3.49-1.54.13-.67.24-1.35.32-2.05.66.35,1.42.55,2.23.55.7,0,1.36-.15,1.96-.42h0ZM839.4,2110.05c-.08.79-.2,1.57-.34,2.32-1.03-.29-2.11-.51-3.21-.63-.05.05-.1.09-.15.13.02-.05.04-.09.08-.14h-.02s.05-.04.05-.04c.19-.48,1.33-.93,1.41-2.05.03-.38-.1-.7-.3-.95.67.53.41,1.33-.24,2.12.88-1.07,1.06-2.17-.82-2.57l-.29-.6h-.03s.3.61.3.61c-.08,0-.11,0-.23-.06-.13-.06-.17-.16-.27-.16h-.09c-.13,0-.15.08-.17.18-.34,0-.88.48-1.18.48h-.06l.03-.02v-.15c.28-.18.71-.33.85-.53l-.17-.1-.1-.18-.04.16h.09v.17l-.64.31v-.14c.18-.1.32-.22.33-.34h-.22c-.06.22-.37.27-.57.34-.15.05-.41.23-.56.31l-.16-.2c.16-.04.47-.18.76-.34-.15.09-.3.19-.41.25v.13c.28-.13.62-.32.82-.48v-.14h0c.16-.11.27-.21.29-.29-.2.02-1.02.65-1.22.65-.02,0-.17-.07-.17-.13,0-.19.11-.37.28-.52v.15c.29-.22.7-.37,1.02-.37.1,0,.14.06.2.09h.25c.02-.08.03-.05.03-.14,0-.01,0-.03-.02-.04h.07c.03-.12.04-.08.04-.17,0-.06-.23-.22-.31-.22h-.13l-.45.04c.07-.09.17-.2.27-.3h-.12c.26-.31.75-.7,1-.7.06.21.17.43.21.7h-.14c.03.11.06.24.06.38v.05c0,.18,0,.3-.02.38-.04.04-.09.1-.15.18.14.19.41.13.74.13.04.02.09.07.16.11l.46.2c.09,0,.08-.12.08-.22h-.13l-.12-.26c0-.38-.02-.85-.18-1.09l.05-1.01.03-1.48c.1-.07.16-.17.26-.17h.09c.16,0,.35.12.35.26,0,.06-.15.7-.19.94-.05.32-.16.66-.16.98v.57s0,.03,0,.05h-.11v.17c0,.19.09.4.13.65h.13c.05.28.15.33.2.52.23-.02.21-.1.26-.31h.03l-.07.27h0s.08-.29.08-.29h.47s.14.01.14.01h.18s.05.01.05.01c.24,1.02.82,1.9,1.61,2.55h0ZM833.05,2108.62v.1l-.14.07c.01-.06.07-.12.14-.17h0ZM833.71,2108.77s.04-.03.06-.04v.04h-.06ZM834.75,2112.46c1.44.09,2.83.34,4.14.71-.47,2.13-1.17,4.09-2.05,5.77-.96-.16-1.96-.25-2.97-.27v-5.71c.28-.13.58-.3.88-.49h0ZM833.05,2113.23v5.44c-.95.02-1.89.1-2.8.24,1.07-.77,1.77-2.02,1.77-3.43,0-.73-.19-1.43-.52-2.03l.1-.17h1.05s.41-.05.41-.05h0ZM825.55,2119.16c.22.28.45.55.69.81-.7.26-1.37.56-2.01.89-1.41-.93-2.67-2.07-3.74-3.37.81-.8,1.72-1.52,2.71-2.15.07.15.14.3.21.45.1,1.44.94,2.68,2.14,3.37h0ZM823.63,2114.12l-.04.03c-.34-.85-.63-1.75-.85-2.67l.42,1.27c1.16-1.46,2.28-2.65,3.19-2.02v.72s.02,0,.02,0c-1.28.42-2.3,1.41-2.74,2.67h0ZM822.72,2111.42c-.31-1.32-.49-2.71-.52-4.14h1.12c.38.28.91.49,1.56.64,1.14-.06,1.46.09.95.45-.77-.04-1.14,0-1.36.27l-.2,1.22-1.56,1.55h0ZM822.64,2106.46h-.43c.02-.92.1-1.83.24-2.71.06.34.14.68.23,1.03-.22.66-.23,1.22-.04,1.69h0ZM825.61,2095.87c.24-.33.49-.66.75-.97.78.29,1.6.54,2.43.73-.12.27-.24.54-.35.82l-.15-.1c-.27-.2-.63-.11-.82-.3-.55-.59-1.27-.62-1.87-.18h0ZM828.35,2096.74l.04.03c-.04.08-.09.15-.16.2-.04.11-.08.22-.12.34,0-.07-.01-.14-.03-.21-.06-.15.11-.22.26-.35h0ZM827.7,2098.56c-.07.23-.13.47-.2.7l-.15-.27c.12-.12.24-.27.35-.43h0ZM828.18,2099.9c.36-1.47.84-2.85,1.41-4.1,1.12.21,2.27.33,3.46.36v4.73c-.28.07-.56.11-.85.11-.52-.49-1.07-.34-1.68-.51-.55,0-1.47-.49-2.34-.59h0ZM833.88,2100.58v-4.42c1.18-.02,2.34-.15,3.46-.36.73,1.6,1.3,3.41,1.69,5.36-.17-.1-.43-.13-.75-.02l-2.58.75c-.77,0-1.03-.23-.76-.67.42-.68.22-.97-.56-.91-.16.1-.33.2-.49.28h0ZM837.86,2102.76c.47-.1.93-.22,1.38-.35.03.17.05.35.08.52-.24.2-.45.42-.64.66l-.18-.06-.71-.24c-.08-.17-.05-.34.08-.52h0ZM828.43,2096.46c-.06.12-.14.22-.29.25-.37.06-.52.01-.9.1-.13.03-.28.02-.35.12-.07.1-.03.26-.22.26h-.22l.17.35c0,.17.01.43.18.43h.04c.1,0,.1-.03.17-.09,0-.25,0-.7.22-.7.14,0,.09.09.17.09.07,0,.25-.1.31-.13.13.03.26.03.26.18v.26s-.25.53-.29.67c-.11.38-.31.41-.37.55h-.26l-.11-.15-.13-.42c-.32,0-.48-.08-.9-.08-.22,0-.83.09-.83-.13,0-.14.68-.34.74-.57l-.51.21v-.29c-.19.05-.16.13-.36.13h-.04c-.1,0-.13-.03-.13-.13,0-.24.37-.87.5-.99.15-.13.65-.63.86-.63h.35c.22,0,.27.15.52.17.02.1.04.1.04.22,0,.13-.22.08-.22.26v.17h.17c.17,0,.44-.15.44-.31v-.09c0-.29-.69-.6-1-.61h0c.36,0,.72.15,1.02.48.18.2.55.1.81.3l.16.1h0ZM824.4,2097.82c.04.06.07.13.07.17,0,.17-.29.25-.48.26.06-.11.17-.22.26-.22.01,0,.03,0,.04,0,.04-.07.07-.14.11-.21h0ZM826.96,2100.12l-.39-.05-.35-.61c-.27,0-.52-.12-.52-.39l.3-.06c.05-.08.16-.21-.04-.21h-.17c-.15,0-.07.09-.22.09h-.35c-.04-.48-.07-.23.42-.32.36-.07.37.08.67.1.03.12.04.07.04.17,0,.09-.09.08-.17.09.03.31.29.11.43.49.09.23.35.42.35.56v.13h0ZM823.91,2098.81s.1,0,.16,0c.19.02.61,0,.61.17v.17c0,.07-.17.51-.17.83v.26h0v.54c.16.01.72.24.81.4-.08.15-.31.22-.37.38h-.17c-.18,0-.03-.11-.3-.13.02.27.13.12.13.3,0,.12-.12.18-.22.18-.33,0-.7-.66-1.22-.66-.11,0-.26.1-.26.22v.13l-.4.55c-.06-.04-.12-.05-.15-.07.12-.33.5-1.09.61-1.16l.04-.43c.19-.28.23-.91.49-1.16.09-.09.17-.16.29-.2.05-.11.09-.21.14-.31h0ZM826.74,2099.21c0-.22.52-.12.52.04v.09c0,.13-.17.29-.27.35-.1-.05-.26-.12-.26-.26v-.22h0ZM829.41,2100.56c0,.05-.09.13-.17.13-.13,0-.67-.16-.78-.23-.08-.05-.23-.08-.38-.1.02-.09.04-.18.06-.27.41.06,1.27.27,1.27.46h0ZM829.63,2100.78c.17-.05.14-.13.35-.13h.22c.12,0,.12.02.22.04l.04.13c-.07.14-.31.35-.52.35h-.09c-.11,0-.22-.18-.22-.26v-.13h0ZM833.55,2101.26h-.03c.12-.09.25-.16.26-.16l.1-.04v-.23c.11-.05.63-.26.64-.26h.13c.14,0,.03.04.22.09v.13c0,.18-.15.61-.31.61h-.22c-.18,0-.23-.1-.38-.15-.15-.05-.19.02-.41.02h0ZM830.54,2101.3c.02-.1.04-.18.17-.18h.04c.12,0,.11.04.13.13l-.35.04h0ZM832.85,2101.43h-.35c-.08,0-.08-.01-.13-.04.02-.1.05-.17.17-.17.1,0,.28.02.5.06v.25c-.07,0-.13-.01-.2-.01v-.09h0ZM833.4,2101.35c.57.13,1.2.33,1.2.52v.3l.34.18c-.14,0-.28.02-.43.03v.06l.34.18s-.02,0-.03,0c-.03,0-.35-.18-.44-.21-.31-.1-.16-.12-.39-.27h-.41c-.02-.06-.07-.12-.12-.16l.23.04c0-.17-.1-.29-.25-.37.15.04.3.08.44.12v-.25h0c-.15-.06-.19.01-.4.01s-.17-.08-.07-.17h0ZM832.07,2101.48s-.11.22-.22.22c-.17,0-.09-.03-.26-.05-.06.12-.02.22-.17.22-.04,0-.09-.05-.09-.09v-.57s0-.13,0-.13c0-.12.02-.12.05-.21l.13-.05c.26.14.57.26.57.65h0ZM830.89,2101.7c0-.12.02-.12.04-.22.13.01.22.03.22.17,0,.1-.07.18-.18.18-.06,0-.09-.06-.09-.13h0ZM829.8,2101.52h.7c.27,0,.19.4.17.57h-.44l-.26-.17-.48-.13v-.14c.16-.05.09-.13.31-.13h0ZM837.13,2102.07s.02-.02.04-.03c.23-.18.79-.53,1.1-.6.07.04.13.06.13.17v.09s-.01.06-.03.1l-.1.03s0,.03,0,.05v.05c-.33.36-1.23.9-1.23,1.44v.09c0,.19,1.07.7,1.31.7h.13c-.01-.19-.57-.45-.7-.48v-.09l.52.1s.68.35,1.14.57c.01.1.02.21.03.31.15.07.27.11.31.12l-.04-.31c.09.04.15.06.18.07l-.04-.27c.1-.07.24-.16.37-.24v-.15c.18-.12.39-.25.44-.28.27-.16.62-.29,1.02-.29v-.09l.48-.05h.74c.18,0,1.01.38,1.2.46.13.05.24.11.34.16.02.13.04.27.06.4.13.1.25.23.37.39.27.36.48.68.6,1.07-.02-.26-.04-.52-.07-.79.27.47.41.95.39,1.69h-.19c0,.16,0,.33-.02.52,0,.1-.02.21-.04.31h.14c-.05.2-.12.4-.2.58,0-.12,0-.24.01-.36-.12.47-.34.89-.64,1.25-.65.66-1.59,1.05-2.67,1.05h-.48c-.75,0-1.6-.7-2.02-1.08-.42-.37-.9-1.36-.9-2.15v-.26c0-.27.22-.98.22-1.01v-.22c0-.17-.4-.3-.61-.3l-.08-.1c0-.46-.15-.34-.47-.49-.23-.11-.39-.21-.64-.32-.75-.31-.31-.54-1.3-.54,0,0-.23-.21-.39-.4h.12c.02.08.04.13.1.15.08,0,.15-.02.23-.03.03-.04.06-.08.14-.08.52,0,.22-.01.48-.29.11-.12.3-.31.42-.41.1-.08.27-.19.45-.3-.12.03-.25.05-.37.07h0ZM839.12,2104.77l.76.33s-.02-.06-.03-.1h.17s.08.01.12.03c-.05-.03-.1-.08-.12-.14-.02-.03-.04-.08-.04-.13h.17s-.06-.05-.07-.07h.01s-.03-.04-.03-.05c.05-.07.1-.14.17-.2h0s-.03-.03-.03-.04c.27-.4.79-.6,1.27-.78.29-.11,1.54-.19,1.81-.04.13.07,1.1.45,1.19.71.04.06.04.11,0,.16-.05.05-.99-.66-1.32-.66h-.61c-.57,0-1.96.24-1.96.65,0,.01,0,.03,0,.04.18.26,1.13.39,1.19.64.02.02.03.05.03.07,0,.06-.06.09-.13.09s-1.08-.54-1.37-.76c0,.09.01.18.02.28.26.11.63.42.89.48v.04s.01,0,.02,0v.22c.31.09.51.41.85.43.2.01.48-.04.58.08,0,.01.02.03.02.05.03.04.05.15.09.24.04.07.09.11.18.11h.13c.14,0,.31-.22.31-.39v-.04s0-.04-.01-.06c-.01-.02-.03-.05-.04-.08-.03-.06-.07-.15-.08-.3.16.01.25.09.29.2.12.2.05.57.06.86l.13.17h.26c.07,0,.45-.28.57-.31,0,.03-.02.05-.04.07.03-.01.05-.02.06-.03-.04.1-.13.16-.23.22,0,0,0,.01-.02.02.03-.01.05-.02.06-.02-.05.12-.19.2-.3.27v.08s.02.07.04.12h0c.1.19.28.46.33.54h0s.03.05.03.05c-.22-.06-.19-.22-.35-.22-.72,0-.84.48-1,.48h-.22v.17s0,.04,0,.05c.06.08.16.12.21.25.02.03.03.06.04.09-.11-.03-.42-.3-.47-.44-.02-.03-.03-.06-.03-.09v-.35c.16-.04.6-.31.71-.49h-.38c-.17.11-.42.23-.71.23h-.09c-.1,0-.15-.06-.18-.14-.03-.04-.05-.1-.06-.16h.22s0,.06,0,.06h.03v.02h.24c.08,0,.09-.02.1-.03,0-.01,0-.02,0-.03-.1-.15-.39-.19-.45-.27-.05-.07-.08-.11-.09-.15-.04-.07-.04-.1-.04-.12-.03-.04-.1-.1-.29-.22l-.28.02-.03-.04h.75s-.11-.09-.28-.21l-.29.02-.41-.46h-.25s-1.75-.92-1.75-.92v-.03h-.02v-.1h0ZM840.29,2105.09c.13.05.27.09.34.2.01.03.02.05.02.09l-.02.05-.27-.12c0-.06,0-.12-.01-.18-.02-.01-.03-.02-.05-.03h0ZM840.73,2105.94h.02c0,.65.04.54.18,1.01.06.19-.02.24-.14.22.01.05.02.09.02.12h-.26s.02.02.02.02c0,.12-.02.26-.13.26-.01,0-.04,0-.07-.02,0,.07,0,.13,0,.2-.02.02-.04.03-.07.03-.1,0-.48-.22-.75-.42v-.07h-.09c-.08-.07-.14-.12-.16-.16h.02s-.04-.03-.04-.05l.65.34.23.03c-.28-.16-.66-.42-.72-.53h.02s-.04-.03-.05-.05l.66.34.26.03c-.06-.05-.11-.1-.12-.14-.01-.02-.02-.04-.02-.06,0-.11.08-.15.14-.2,0,0,0-.01,0-.01,0-.07.03-.11.07-.15v-.21h.14v-.3s-.11-.06-.18-.11c0,.11,0,.21,0,.32-.15-.08-.44-.33-.56-.33h-.17s-.04,0-.05,0c-.03.17-.1.39-.18.42-.04.12-.1.22-.15.22-.08,0-.11-.02-.12-.07-.02-.02-.03-.05-.03-.1v-.04h0s.21-.01.21-.01c-.03-.01-.04-.03-.05-.06-.02-.02-.03-.05-.03-.1v-.04c0-.25.22-.66.22-.79h0s-.03-.02-.05-.07c-.02-.02-.04-.07-.04-.2l.14.07v-.04s.84.37.84.37v.11s.37.19.37.19v.03h0ZM839.99,2105.82c.06,0,.14.06.22.11l-.22-.11h0ZM842.28,2107.85c.08.15.23.48.23.55v.44c0,.17.01.01-.04.13h-.06s-.01-.04-.01-.04h-.01s-.07-.48-.07-.48c-.04-.07-.11-.18-.15-.18-.33,0-.51.52-.7.57v-.06s-.01.01-.03.01v-.13s-.04-.77-.04-.77c-.03-.04-.05-.05-.06-.09-.02-.02-.03-.05-.03-.1v-.17l.9.26v-.04s.04.05.07.11h0ZM842.65,2104.9c.14-.01.16-.04.3-.04h.13c.08,0,.13.04.15.11.03.05.04.12.04.2v.09c0,.1-.07.18-.17.18-.04,0-.35-.24-.42-.42-.02-.04-.03-.07-.04-.1h0ZM845.25,2105.44c.06.1.08.24.08.38v.17c-.1,0-.17-.07-.2-.16,0,0,0-.01,0-.02.02.07.03.15.03.23v.17c-.1,0-.16-.07-.2-.16-.09-.14-.08-.38-.08-.58.09.03.16.1.2.19,0,0,.01.02.01.03-.04-.14-.03-.31-.03-.45.09.03.16.1.2.19h0ZM845.15,2107.34c0,.17.06.24-.17.26v-.05h-.02c0-.12.02-.78.13-.78.05,0,.07.03.08.07h0c.02-.15.05-.29.1-.29.05,0,.07.03.08.07.07.07,0,.31-.01.37-.03.27.1.37-.18.39v-.05h-.01ZM842.21,2105.6v-.17c.19.01.42.13.47.28.02.02.03.04.03.07h-.13c-.14,0-.25-.08-.35-.13v-.03h-.02ZM832.63,2101.91c0-.13,0-.18.13-.18.07,0,.13.03.13.09s-.06.09-.13.09h-.13ZM829.28,2101.96h0s.07.01.1.02l-.09-.02h0ZM832.32,2101.69c.1.07.14.11.14.27v.04c0,.1-.07.13-.13.22h-.26l-.08.1v.18s-.07.08-.07.08v.17c-.06.05-.12.09-.24.09-.1,0-.17-.07-.17-.17v-.13c-.14-.01-.16-.04-.31-.04h-.01c.14-.06.21-.12.27-.18-.11-.01-.22-.02-.33-.04.02,0,.04-.01.06-.02.48-.19.28-.38.94-.37l.2-.19h0ZM831.13,2102.5s.01.15.02.23h-.02c-.09,0-.08.06-.06.14h-.05c-.11,0-.24-.19-.35-.26-.27.06-.22.18-.35.18-.09,0-.06-.02-.18-.05v-.06c.17-.19.72-.07.97-.17h.01ZM830.33,2102.35c.08-.03.18-.04.29-.04,0,.01,0,.03,0,.04h-.28ZM826.04,2102.13c.08-.05.15-.15.22-.19.07.02.14.05.21.08v.2c0,.44-.17.69-.18,1.18,0,.24-.06,1.05-.26,1.05-.47,0-.58-.43-.44-.84.09-.27.36-.74.36-1.04h.09v-.26c-.26.02-.09.09-.26.09h-.04c-.1,0-.13-.03-.13-.13,0-.18.11-.39.27-.48.05.02.11.05.17.06v.28h0ZM844.37,2103.11c-.16-.07-.34-.13-.47-.22l-.97-.13-.15-.29.16-.02c.36,0,.53.03.74.18.18,0,.39.07.64.18.02.1.04.2.06.3h0ZM845.27,2103.43c.54.44.98.96.99,1.3-.42,0-.75-.64-1.04-.94.04.04.08.07.12.11-.02-.15-.05-.31-.07-.47h0ZM832.58,2102.39c.07-.05.15-.08.19-.08h.28v.1c-.16,0-.31,0-.47-.01h0ZM833.34,2102.31h.09c.08,0,.11.04.16.09h-.11l-.13-.09h0ZM833.81,2102.39h0s0,0,0,0h0ZM833.87,2102.72s-.07.02-.1.02c-.11,0-.05-.03-.22-.04-.03.13-.42.48-.52.48h-.04c-.23,0-.28-.41-.57-.48.09-.07.23-.14.27-.14h.65c.1,0,.12.07.22.13l.17-.05c.06.04.12.04.15.08h0ZM826.92,2103.27s.01-.1.02-.16c.02-.16.07-.29.21-.29h.04s.22.1.41.19c.01-.08.02-.17.03-.25.15.07.3.14.36.16.22.07.65.19.9.24.24.05.84.02,1.12.02.45,0,.75.09,1.05.09h.26c.28,0,.33-.09.61-.09.12,0,.26.21.26.3v.09c0,.11-.15.2-.22.31v.22c-.17.25-.56.42-.57.79.24-.02.82-.63,1.05-.79-.02-.1-.04-.1-.04-.22,0-.19.33-.38.64-.47v.22c.09-.02.18-.03.24-.03h.58v-.25h.16c.24,0,.47.43.52.65.16,0,.26-.02.26-.17,0-.24-.27-.51-.4-.71.08,0,.18.03.28.07.17-.01.35-.02.52-.04.12.09.21.17.21.24v.17c-.17.05-.22.23-.22.44s.14.39.26.48l.05.44.09.12.05.7v.52s-.4-.18-.4-.18l-.1-.91-.31-.24c.01-.3.09-.39-.16-.41l-.06.44c-.36.19-.45.42-.81.62-.31.17-.59.34-.9.5-.31.17-1.55,1.06-1.77,1.06h-.04c-.1,0-.13-.03-.13-.13v-.18c0-.31.05-.57.1-.86.05-.28.25-.54.25-.71v-.04c0-.1-.03-.13-.13-.13-.06,0-.49.61-.74.61-.12,0-.31-.43-.44-.53-.1-.09-.47-.23-.64-.28-.41-.12-1.29-.12-1.54-.29-.21,0-1.09.02-1.09-.17v-.07c.04-.26.1-.65.13-.75.03-.1.04-.23.04-.36h0ZM829.8,2106.15h-.13s-.64-.35-.7-.39h-.31c-.08-.05-.07-.09-.17-.09h-.22c-.21,0-.27.05-.39.13-.35,0-.82.15-1.13.23-.5.14-.6.08-1.19.08l-.12-.09c-.38,0-1.53-.54-1.53-.82v-.04c0-.18.46-.44.65-.44h1.44c.14,0,.12.14.35.13.09,0,.16-.02.26-.03,0,.08-.01.16-.01.23.05,0,.1-.01.17-.01.19,0,.23.09.52.09.04,0,.09,0,.13,0,0-.08,0-.16.01-.23.16,0,.33-.01.48.02.35.07.79.07.8.42.26,0,.3-.17.65-.17s.44.29.66.44l.05.48c-.09.04-.14.09-.27.09h0ZM836.82,2104.71s.12-.09.13-.09c.18,0,.79.4.79.52v.44c0,.24-.09.24-.09.48v.4h-.12v.25s-.05,0-.1,0h-.52c-.13,0-.17-.13-.17-.26v-.52l.09-1.22h0ZM830.02,2107.2v-.13s-.07-.31-.11-.47h.14c.3,0,.38.4.48.69h.15c.28.56.29.05.39.91.02.23.28.78.38,1.02.1.24.21.9.49.9h.09c.12,0,.61-.26,1.03-.54v.14c.31-.2.57-.41.59-.5.06,0,.14-.03.23-.06v-.17c.3-.1.75-.41.85-.41h.13c.19,0,.35.11.39.26l.2-.09.2-.04.09.53-.2.16v.11h-.28c-.12,0-.44.56-.56.66-.31.24-.37.28-.74.48-.09.05-.1.13-.13.22-.05.04-.06.09-.08.16,0,0-.01.01-.02.02-.04.05-.26.21-.34.27-.16.12-.59.38-.79.43l-.06-.08.06-.04h-.09s-.01-.01-.01-.01l-.02-.05.57-.36v.13l.28-.17c-.01-.06,0-.09-.04-.11l.12-.08c-.02-.08,0-.11-.12-.11-.14,0-.28.17-.57.17h-.39c-.12,0-.21-.17-.44-.17h-.13v.13c0,.24-.09.57-.31.57h-.39c-.17,0,0-.08-.31-.09.03-.34.31-.07.31-.35,0-.19-.31-.27-.31-.35,0-.09.02-.06.04-.17.12,0,.45-.03.44-.13l-.05-.35c-.18-.05-.07-.09-.21-.09h-.04c-.12,0-.12.02-.22.04l-.09-.13c.1-.14.18-.25.18-.48,0-.13-.14-.25-.17-.39-.27.02-.12.13-.3.13-.14,0-.27-.04-.27-.17v-.04c0-.13.26-.18.39-.44l-.19-.37c-.15.05-.34.15-.38.15-.09,0-.08-.09-.09-.17.17-.04.48-.21.48-.39v-.05c0-.09-.18-.49-.26-.52h0ZM829.9,2106.46l.04-.09h.16c.09,0,.16.03.22.09h-.42ZM835.52,2107.24h-.14v-.46c.1.05.18.14.16.28l-.02.18h0ZM831.63,2107.59c0-.18.04-.23.17-.26.03.14.18.43.18.57v.22l-.34.23v-.71s0-.04,0-.04h0ZM836.21,2109.16h-.08l-.06-.21h.02s0,0,0,0h0s0,0,0,0h0s0,0,0,0h0s0,0,0,0h0s0,0,0,0h0s0,0,0,0h0s0,0,0,0h0s0,0,0,0h0s0,0,0,0h0s0,0,0,0h0s0,0,0,0h0s0,0,0,0h0s0,0,0,0h0s0,0,0,0h0s0,.01,0,.01h0v.02h0v.02h0s0,.02,0,.02h0v.02h0v.02h0v.03h0v.02h0v.02h0ZM835.73,2109.6c.23-.06.28,0,.31-.22h.13c.02.1.04.1.04.22,0,.36-.68,1.05-.87,1.05-.17,0-.04-.38-.04-.53l-.09-.12c.06-.21.01-.25.22-.27v.13c0,.13.11.19.22.22.05-.11.09-.19.09-.35v-.13h0ZM829.8,2110.86s-.74-.21-.78-.23c-.15-.09-.47-.31-.55-.45-.2-.42.08-1.37.49-1.37h.26c.18,0,.52.6.52.83l.13.05c.01.29.09.13.09.3v.13c0,.12-.03.1-.13.13v.22c0,.2.08.13.09.39h-.13ZM836.45,2110c.14,0,.25,0,.25.17v.04c0,.14-.33.57-.53.57-.11,0-.13-.06-.19-.14l.47-.64h0ZM834.34,2110.55c.26-.02.09-.09.26-.09h.17c-.01.15-.25.48-.35.48h-.17l.09-.4h0ZM828.83,2110.88h0ZM829.12,2111.57h0l-.26.18h0s0,0,0,0h0s0,0,0,0h0s0,0,0,0h0s0,0,0,0h0s0,0,0,0h0s0,0,0,0h0s0,0,0,0h0s0,0,0,0h0s0,0,0,0h0s0,0,0,0h0s0,0,0,0h0s0,0,0,0h0s0,.01,0,.01h0s0,0,0,0h0s0,0,0,0h0s0,0,0,0h0s0,0,0,0h0s0,0,0,0h0s0,0,0,0h0s0,0,0,0h0s0,.01,0,.01h0s0,.01,0,.01h0v.02h0s0,.01,0,.01h0v.02h0v.02h0s0,.01,0,.01h0s0,.02,0,.02h0s0,0,0,0h0s0,.02,0,.02h0s0,.01,0,.01h0s0,0,0,0h0s0,0,0,0h0s0,.01,0,.01h0s0,0,0,0h0s0,.01,0,.01h0s0,.01,0,.01h0s0,0,0,0h0s0,0,0,0h0s0,0,0,0h0s0-.01,0-.01h0s0,0,0,0h0s0,0,0,0h0s0,0,0,0h0s0-.01,0-.01h0s0-.01,0-.01h0s0-.02,0-.02h0s0-.01,0-.01h0s0-.02,0-.02h0v-.02h0v-.02h0s0-.01,0-.01h0v-.02h0s0,0,0,0h0s0-.01,0-.01h0s0,0,0,0h0s0,0,0,0h0s0,0,0,0h0s0,0,0,0h0s0,0,0,0h0s0,0,0,0h0s0,0,0,0h0s0,0,0,0h0s0-.01,0-.01h0s0,0,0,0h0s0,0,0,0h0s0,0,0,0h0s0,0,0,0h0s0,0,0,0h0s0,0,0,0h0s0,0,0,0h0s0,0,0,0h0s0,0,0,0h0s0,0,0,0h0s0,0,0,0h0s0,0,0,0h0l.26-.18h0ZM828.41,2111.05h0v.02h0v.02h0v.02h0v.02h0s0,0,0,0h0v.02h0s0,.01,0,.01h0s0,.01,0,.01h0s0,0,0,0h0s0,0,0,0h0s0,0,0,0h0s0,0,0,0h0s0,0,0,0h0s0,0,0,0h0s0,0,0,0h0s0,0,0,0h0s0,0,0,0h0s0,0,0,0h.01s0,0,0,0h.02-.03s0,0,0,0h-.01s0,0,0,0h0s0,0,0,0h0s0,0,0,0h0s0,0,0,0h0s0,0,0,0h0s0,0,0,0h0s0,0,0,0h0s0,0,0,0h0s0,0,0,0h0s0,0,0,0h0s0,0,0,0h0s0-.01,0-.01h0v-.02h0s0,0,0,0h0v-.02h0v-.02h0v-.02h0v-.02h0l.42-.17-.42.17h0ZM834.36,2111.62c.13-.2.74-.45.98-.45v.17c0,.15-.31.27-.39.4-.3,0-.23.09-.44.09h-.18v-.1s.08-.06.14-.1h-.11ZM830.32,2112.04c-.26,0-.56-.29-.61-.48h-.17v-.17c.34,0,.43.27.61.39.14-.01.16-.04.31-.04.04,0,.07.03.08.07-.17.02-.35.05-.52.08.02.02.05.04.08.07.14-.01.16-.04.3-.04.03,0,.05.01.07.04-.06.05-.14.09-.14.09h0ZM829.12,2111.57l-.26.18h0s0,0,0,0h0s0,0,0,0h0s0,0,0,0h0s0,0,0,0h0s0,0,0,0h0s0,0,0,0h0s0,0,0,0h0s0,0,0,0h0s0,0,0,0h0s0,0,0,0h0s0,0,0,0h0s0,0,0,0h0s0,.01,0,.01h0s0,0,0,0h0s0,0,0,0h0s0,0,0,0h0s0,0,0,0h0s0,0,0,0h0s0,0,0,0h0s0,0,0,0h0s0,.01,0,.01h0s0,.01,0,.01h0v.02h0s0,.01,0,.01h0v.02h0v.02h0s0,.01,0,.01h0s0,.02,0,.02h0s0,0,0,0h0s0,.02,0,.02h0s0,.01,0,.01h0s0,0,0,0h0s0,0,0,0h0s0,.01,0,.01h0s0,0,0,0h0s0,.01,0,.01h0s0,.01,0,.01h0s0,0,0,0h0s0,0,0,0h0s0,0,0,0h0s0-.01,0-.01h0s0,0,0,0h0s0,0,0,0h0s0,0,0,0h0s0-.01,0-.01h0s0-.01,0-.01h0s0-.02,0-.02h0s0-.01,0-.01h0s0-.02,0-.02h0v-.02h0v-.02h0s0-.01,0-.01h0v-.02h0s0,0,0,0h0s0-.01,0-.01h0s0,0,0,0h0s0,0,0,0h0s0,0,0,0h0s0,0,0,0h0s0,0,0,0h0s0,0,0,0h0s0,0,0,0h0s0,0,0,0h0s0-.01,0-.01h0s0,0,0,0h0s0,0,0,0h0s0,0,0,0h0s0,0,0,0h0s0,0,0,0h0s0,0,0,0h0s0,0,0,0h0s0,0,0,0h0s0,0,0,0h0s0,0,0,0h0s0,0,0,0h0s0,0,0,0h0l.26-.18-.08.33h0s0,0,0,0l.08-.33h0ZM831.41,2112.53h-.1s.02-.07.04-.14c-.1-.02-.1-.05-.21-.05-.06,0-.35.17-.65.3-.57.08-1.12.19-1.66.32l-.2-.24c-.53,0-.77-.16-1.39-.09-.73.08-.64.18-1.11.49-.28.18-.68.46-.86.74-.01.02-.07.2-.15.41l-.05.02c-.1.3-.2.61-.2.62l-.02.66.1.69c.18.27.24.57.44.83.25.33.36.38.67.65.45.38,1.33.59,2.01.46.61-.12,1.47-.45,1.74-.88.26-.41.67-1.28.58-2.01l-.06-.96c-.06-.09-.1-.22-.22-.22-.1,0-.17.07-.17.17v.13c0,.16.13.37.13.7v.35c0,.22-.07.23-.09.44h-.3c-.18,0-.27.07-.31.22-.2,0-.36-.05-.48-.04-.01,0-.02,0-.03,0l.05.13s-.04,0-.06,0c-.21.02-.2.17-.35.17h-.13c-.03-.11-.04-.08-.04-.17,0-.04.02-.06.04-.09,0-.01,0-.03,0-.05,0-.11.2-.2.3-.32.15-.19.04-.29.36-.3.03.12.12.26.26.26h.13c.21,0,.48-.2.48-.44,0-.11-.07-.13-.13-.22-.41,0-.38-.22-.48-.22-.01,0-.34.29-.64.56l.03.08c-.28.25-.55.51-.59.55-.02.02-.04.06-.05.09v-.03c-.09.21-.15.5-.21.62-.08.14-.5.52-.62.52h-.18c-.13,0-.38-.21-.39-.39h.31c.18,0,.06-.12.27-.21.19-.09.21,0,.21-.27-.15.01-.23.09-.26.09-.24,0-.36-.07-.57-.09-.06.04-.19.17-.22.17-.12,0-.22-.27-.22-.35,0-.12.15-.22.26-.22.1,0,.2.09.26.12l.52.05v-.13c0-.2-.31-.09-.35-.61h-.13v.09h-.13c-.1,0-.13-.03-.13-.13v-.04c0-.1.07-.18.17-.18.13,0,.16.02.3.06l.27-.48-.04-.02c-.12-.01-.17,0-.17-.13v-.22c0-.24.31-.26.57-.26.06-.04.23-.17.31-.17h.04c.16,0,.03-.01.12.04,0-.01.01-.02.02-.04h0c.04-.45.48-.11.52-.7.12-.03.08-.04.17-.04.1,0,.17.07.17.17v.18c.23,0,.36-.19.6-.27.18-.06.5-.11.7-.17.13-.03.63-.09.79-.09.37,0,.38-.13.74-.13h.13c.26,0,.78.14.78-.09,0-.11-.2-.31-.31-.31-.15,0-.07.09-.22.09h-.3c-.13,0-.31,0-.39-.08h0ZM828.21,2113.94c.16-.06.48-.24.67-.24v.13c-.13.01-1,.57-1.13.57h-.03c.13-.04.22-.11.26-.24-.02,0-.03-.01-.04-.02.01-.01.03-.04.04-.06,0,.01,0,.02,0,.04h.13s.08-.02.14-.04l-.03-.13h0ZM826.22,2112.91c.34-.24.36-.34.83-.41l.02.11c-.29.09-.57.2-.85.3h0ZM827.49,2115.14c0-.14.05-.23.11-.31l.03.1c.09-.07.2-.13.32-.19.16-.09.28-.17.4-.26l-.03-.11c.1-.06.19-.13.3-.2.2-.13.47-.21.7-.35.12-.07.54-.39.61-.39h.09c.1,0,.17.07.17.17v.05c0,.09-1.76,1.89-2.14,1.92-.03-.13-.21-.44-.35-.44h-.22ZM825.35,2109.9h-.18.18ZM828.06,2109.2h-.05.05ZM828.93,2111.3h-.13.13ZM823.36,2115.24s-.08.05-.12.08c.04-.02.08-.05.12-.08h0ZM816.7,2106.46c.08-3.3,1.11-6.36,2.83-8.92.89.93,1.89,1.77,3,2.5-.7,1.99-1.11,4.16-1.15,6.42h-4.68ZM821.38,2107.28c.05,2.6.58,5.07,1.49,7.3-1.06.66-2.02,1.42-2.88,2.26h0c-1.99-2.68-3.19-5.98-3.28-9.56h4.68ZM846.6,2117.29h0ZM846.57,2117.33h0s0,0,0,0h0ZM846.55,2117.35h0s0,0,0,0h0ZM846.55,2117.35h0,0ZM846.44,2117.49h0s0,0,0,0h0ZM846.44,2117.49c-1.07,1.3-2.33,2.44-3.74,3.37-.64-.33-1.32-.63-2.01-.89,1.22-1.34,2.25-2.9,3.05-4.63.99.63,1.9,1.36,2.71,2.15h0ZM843.69,2115.31l-.12-.08s.08.05.12.08h0ZM843.49,2115.19s-.07-.04-.1-.06c.03.02.06.04.1.06h0ZM843.12,2114.97s-.07-.04-.1-.06c-.81,1.8-1.9,3.41-3.18,4.76-.7-.23-1.43-.43-2.17-.58.86-1.68,1.54-3.59,2.01-5.68h-.04c1.24.4,2.4.92,3.48,1.56h0ZM839.08,2113.23c-.06-.02-.11-.03-.16-.05.06.01.11.03.16.05h0ZM820.33,2117.29h0s0,0,0,0h0ZM841.88,2121.38h0c-1.71.99-3.62,1.7-5.65,2.03,1.4-.71,2.69-1.66,3.83-2.79.62.22,1.23.48,1.81.76h0ZM839.18,2120.33c-1.29,1.2-2.76,2.16-4.35,2.82.9-.92,1.72-2.03,2.44-3.29.65.13,1.29.29,1.91.48h0ZM836.42,2119.71c-.75,1.27-1.6,2.37-2.54,3.24v-3.46c.86.02,1.72.09,2.54.21h0ZM833.05,2119.5v3.46c-.94-.88-1.8-1.97-2.55-3.24.83-.13,1.68-.2,2.55-.21h0ZM829.66,2119.86c.72,1.27,1.54,2.37,2.44,3.29-1.59-.65-3.06-1.61-4.35-2.82.63-.19,1.26-.35,1.91-.48h0ZM826.86,2120.62c1.15,1.13,2.44,2.08,3.84,2.79-2.03-.34-3.93-1.04-5.65-2.03h0c.58-.28,1.19-.54,1.81-.76h0ZM843.56,2093.49c1.27.96,2.4,2.09,3.35,3.37-.83.89-1.77,1.69-2.81,2.39-.69-1.72-1.61-3.29-2.72-4.67.76-.32,1.49-.69,2.18-1.09h0ZM840.57,2094.9c1.16,1.4,2.11,3.02,2.81,4.8-1.08.66-2.25,1.21-3.5,1.64-.39-2.07-.98-4-1.75-5.71.84-.19,1.65-.44,2.44-.73h0ZM825.55,2094.58c-1.1,1.37-2.02,2.95-2.72,4.67-1.04-.7-1.98-1.51-2.81-2.39.95-1.28,2.08-2.41,3.35-3.37.7.41,1.43.77,2.18,1.09h0ZM824.11,2092.96c1.95-1.31,4.18-2.23,6.59-2.63-1.72.88-3.27,2.1-4.59,3.59-.69-.28-1.36-.6-2-.96h0ZM826.93,2094.23c1.47-1.6,3.23-2.84,5.17-3.64-1.13,1.15-2.12,2.6-2.96,4.27-.76-.17-1.5-.38-2.21-.63h0ZM829.96,2095.03c.86-1.7,1.91-3.14,3.09-4.24v4.54c-1.06-.02-2.09-.13-3.09-.3h0ZM833.88,2095.33v-4.54c1.18,1.1,2.22,2.54,3.09,4.24-1,.18-2.03.28-3.09.3h0ZM837.78,2094.86c-.83-1.67-1.83-3.12-2.95-4.27,1.94.79,3.69,2.04,5.16,3.64-.71.25-1.45.46-2.21.63h0ZM840.82,2093.92c-1.33-1.49-2.88-2.71-4.59-3.59,2.41.4,4.65,1.32,6.59,2.63-.64.36-1.31.68-2,.96Z"/>
  </g>
</svg>